<svg width="500" height="500" viewBox="0 0 500 500" fill="none" xmlns="http://www.w3.org/2000/svg">
<path d="M249.55 102.45C177.4 134.92 242.89 192.77 201.23 224.28C159.57 255.79 46.31 219.36 89.48 301.19C140.2 397.3 362.31 384 410.2 266.07C458.09 148.14 321.7 70 249.55 102.45Z" fill="#407A45"/>
<path opacity="0.9" d="M249.55 102.45C177.4 134.92 242.89 192.77 201.23 224.28C159.57 255.79 46.31 219.36 89.48 301.19C140.2 397.3 362.31 384 410.2 266.07C458.09 148.14 321.7 70 249.55 102.45Z" fill="white"/>
<path d="M250 427.56C357.083 427.56 443.89 422.492 443.89 416.24C443.89 409.988 357.083 404.92 250 404.92C142.918 404.92 56.1101 409.988 56.1101 416.24C56.1101 422.492 142.918 427.56 250 427.56Z" fill="#F5F5F5"/>
<path d="M382.05 372.62C382.05 372.62 374.29 363.4 369.33 367.7C364.37 372 366.88 381.13 372.6 381.43C375.993 381.613 379.34 380.589 382.05 378.54V372.62Z" fill="#407A45"/>
<path opacity="0.2" d="M382.05 372.62C382.05 372.62 374.29 363.4 369.33 367.7C364.37 372 366.88 381.13 372.6 381.43C375.993 381.613 379.34 380.589 382.05 378.54V372.62Z" fill="white"/>
<path d="M413.68 349.22C413.68 349.22 420.19 342.4 424.22 343.56C428.25 344.72 427.84 361.01 415.33 354.41L413.68 349.22Z" fill="#407A45"/>
<path opacity="0.3" d="M413.68 349.22C413.68 349.22 420.19 342.4 424.22 343.56C428.25 344.72 427.84 361.01 415.33 354.41L413.68 349.22Z" fill="white"/>
<path d="M390.42 400.11C390.42 400.11 369.02 370.84 386.42 364.91C403.82 358.98 406.89 388.46 401.93 396.67C396.97 404.88 390.42 400.11 390.42 400.11Z" fill="#407A45"/>
<path d="M400.34 340.18C400.34 340.18 413.62 309.36 393.96 308.43C374.3 307.5 372.15 338.99 394.78 343.56L400.34 340.18Z" fill="#407A45"/>
<path opacity="0.3" d="M390.42 400.11C390.42 400.11 369.02 370.84 386.42 364.91C403.82 358.98 406.89 388.46 401.93 396.67C396.97 404.88 390.42 400.11 390.42 400.11Z" fill="white"/>
<path opacity="0.3" d="M400.34 340.18C400.34 340.18 413.62 309.36 393.96 308.43C374.3 307.5 372.15 338.99 394.78 343.56L400.34 340.18Z" fill="white"/>
<path d="M395.63 365.41C395.63 365.41 389.18 338.2 401.63 336.03C414.08 333.86 426.28 358.45 400.63 370.81C400.57 370.81 396.17 368.08 395.63 365.41Z" fill="#407A45"/>
<path opacity="0.2" d="M395.63 365.41C395.63 365.41 389.18 338.2 401.63 336.03C414.08 333.86 426.28 358.45 400.63 370.81C400.57 370.81 396.17 368.08 395.63 365.41Z" fill="white"/>
<path d="M375.02 395.96H410.94L407.94 418.95H378.02L375.02 395.96Z" fill="#263238"/>
<path d="M393.7 338C386.3 332.59 381.17 322.13 385.54 313.32C385.36 314.14 385.14 315.03 384.94 315.85C383.48 324.2 388.06 332.17 393.7 338Z" fill="#407A45"/>
<path d="M389 311.53C397.53 313.26 401.3 322.31 400.31 330.28C400.12 331.41 399.96 332.52 399.73 333.63C399.842 331.397 399.818 329.16 399.66 326.93C399.13 320.36 395.51 313.93 389 311.53Z" fill="#407A45"/>
<path d="M404 338C408.79 339.69 411.79 344.95 411.8 349.93C411.8 354.27 409.4 358.21 406.72 361.45C404.767 363.803 402.533 365.908 400.07 367.72C402.246 365.633 404.252 363.376 406.07 360.97C408.3 357.97 410.26 354.72 410.75 351.02C411.17 345.88 408.66 340.4 403.95 338.02L404 338Z" fill="#407A45"/>
<path d="M400.34 340.18C401.62 344.18 402.76 348.93 400.68 352.85C398.94 355.39 398.76 358.71 398.68 361.74C398.68 362.8 398.68 363.85 398.75 364.91C398.239 362.833 398.007 360.698 398.06 358.56C398.026 356.357 398.627 354.191 399.79 352.32C401.71 348.66 400.79 344.13 400.3 340.18H400.34Z" fill="#407A45"/>
<path d="M391.62 367.7C396.62 370.27 398.62 387.53 398.43 392.96C398.28 391.86 398.11 390.77 397.9 389.68C396.95 384.24 395.96 378.78 394.52 373.45C393.85 371.45 393.42 368.99 391.62 367.7Z" fill="#407A45"/>
<path d="M385.54 368.65C384.335 372.568 384.151 376.729 385.005 380.739C385.859 384.748 387.723 388.473 390.42 391.56C389.626 390.88 388.875 390.152 388.17 389.38C385.754 386.56 384.217 383.093 383.749 379.409C383.282 375.725 383.904 371.984 385.54 368.65Z" fill="#407A45"/>
<path d="M418.73 352.54C421.01 351.93 422.95 351.38 424.61 349.7C424.2 352.25 420.96 353.45 418.73 352.54Z" fill="#407A45"/>
<path d="M417.4 348.05C418.47 345.87 422.13 344.51 423.68 346.88C421.49 345.93 419.36 347.12 417.4 348.05Z" fill="#407A45"/>
<path d="M378.51 374C376.01 372.24 373.42 369.24 370.19 370.81C372.82 367.69 377.24 371.18 378.51 374Z" fill="#407A45"/>
<path d="M378.51 378.54C375.24 379.74 368.71 379.83 368.31 375.26C370.18 378.99 374.95 378.17 378.51 378.54Z" fill="#407A45"/>
<path d="M315.65 399C315.822 398.652 315.906 398.267 315.897 397.879C315.887 397.491 315.783 397.111 315.594 396.772C315.406 396.432 315.137 396.144 314.813 395.931C314.488 395.718 314.116 395.588 313.73 395.55C314.061 394.56 314.083 393.493 313.791 392.49C313.5 391.488 312.91 390.598 312.1 389.94C311.907 389.755 311.656 389.642 311.39 389.62C311.107 389.65 310.841 389.769 310.63 389.96L306.14 393.19C305.775 393.409 305.467 393.71 305.24 394.07C304.32 395.85 307.64 398.13 306.24 399.6C305.85 400.03 305.24 400.11 304.73 400.42C303.66 401.09 303.53 402.56 303.03 403.72C302.53 404.88 300.79 405.77 300.12 404.72C300.62 403.61 299.12 402.65 297.92 402.51C296.72 402.37 295.45 402.3 294.79 401.17C293.07 402.67 289.24 398.49 289.32 396.81C288.645 396.931 288.024 397.261 287.546 397.752C287.067 398.243 286.754 398.872 286.65 399.55C286.455 400.941 286.404 402.349 286.5 403.75C286.5 406.48 285.58 409.15 285.63 411.88C285.63 414 286.49 416.35 288.43 417.21C289.391 417.553 290.413 417.689 291.43 417.61L313.56 417.47C314.093 417.511 314.629 417.422 315.12 417.21C316.12 416.69 316.33 415.38 316.42 414.26C316.807 409.453 317.203 404.647 317.61 399.84L315.65 399Z" fill="#407A45"/>
<path opacity="0.3" d="M315.65 399C315.822 398.652 315.906 398.267 315.897 397.879C315.887 397.491 315.783 397.111 315.594 396.772C315.406 396.432 315.137 396.144 314.813 395.931C314.488 395.718 314.116 395.588 313.73 395.55C314.061 394.56 314.083 393.493 313.791 392.49C313.5 391.488 312.91 390.598 312.1 389.94C311.907 389.755 311.656 389.642 311.39 389.62C311.107 389.65 310.841 389.769 310.63 389.96L306.14 393.19C305.775 393.409 305.467 393.71 305.24 394.07C304.32 395.85 307.64 398.13 306.24 399.6C305.85 400.03 305.24 400.11 304.73 400.42C303.66 401.09 303.53 402.56 303.03 403.72C302.53 404.88 300.79 405.77 300.12 404.72C300.62 403.61 299.12 402.65 297.92 402.51C296.72 402.37 295.45 402.3 294.79 401.17C293.07 402.67 289.24 398.49 289.32 396.81C288.645 396.931 288.024 397.261 287.546 397.752C287.067 398.243 286.754 398.872 286.65 399.55C286.455 400.941 286.404 402.349 286.5 403.75C286.5 406.48 285.58 409.15 285.63 411.88C285.63 414 286.49 416.35 288.43 417.21C289.391 417.553 290.413 417.689 291.43 417.61L313.56 417.47C314.093 417.511 314.629 417.422 315.12 417.21C316.12 416.69 316.33 415.38 316.42 414.26C316.807 409.453 317.203 404.647 317.61 399.84L315.65 399Z" fill="white"/>
<path d="M317 375.56H282.61L282.89 379.03L283.1 381.51L283.62 387.95L283.92 391.66L284.31 396.58L284.48 398.7L284.54 399.33L284.74 401.81L285.02 405.22L285.19 407.33L285.36 409.48L285.56 411.96L285.72 413.84L285.89 415.95L285.96 416.87H317.47L317.54 415.95L317.71 413.85L317.87 411.95L318.07 409.47L318.24 407.33L318.41 405.22L318.69 401.8L318.89 399.33L318.94 398.7L319.11 396.58L319.51 391.66L319.81 387.96L320.33 381.51L320.53 379.03L320.81 375.56H317ZM319.06 377.84L318.4 377.17H319.12L319.06 377.84ZM318.89 379.94L318.83 380.78L315.75 383.85L312.23 380.33L315.38 377.17H316.12L318.89 379.94ZM318 390.94L315.75 393.19L312.23 389.66L315.75 386.15L318.19 388.58L318 390.94ZM285.33 388.58L287.77 386.15L291.29 389.66L287.77 393.19L285.53 390.94L285.33 388.58ZM314.57 385L311 388.52L307.52 385L311.04 381.48L314.57 385ZM309 377.17H313L311 379.17L309 377.17ZM309.88 389.65L306.36 393.18L302.83 389.65L306.36 386.14L309.88 389.65ZM298.17 394.32L301.7 390.8L305.21 394.32L301.7 397.84L298.17 394.32ZM300.55 398.98L297 402.51L293.53 399L297.05 395.47L300.55 398.98ZM306.36 395.46L309.9 399L306.38 402.52L302.85 399L306.36 395.46ZM301.7 388.52L298.19 385L301.72 381.48L305.23 385L301.7 388.52ZM300.55 389.65L297.03 393.18L293.51 389.65L297.03 386.14L300.55 389.65ZM292.36 388.52L288.86 385L292.38 381.48L295.91 385L292.36 388.52ZM292.36 390.8L295.89 394.32L292.36 397.84L288.84 394.32L292.36 390.8ZM295.89 403.65L292.36 407.17L288.84 403.65L292.36 400.13L295.89 403.65ZM297.02 404.79L300.55 408.31L297.03 411.84L293.51 408.31L297.02 404.79ZM298.17 403.65L301.7 400.13L305.21 403.65L301.7 407.17L298.17 403.65ZM306.36 404.79L309.88 408.31L306.36 411.84L302.83 408.31L306.36 404.79ZM311.02 409.45L314.55 412.98L312.26 415.26H309.8L307.52 413L311.02 409.45ZM307.5 403.65L311.02 400.13L314.55 403.65L311 407.17L307.5 403.65ZM307.5 394.32L311 390.8L314.53 394.32L311 397.84L307.5 394.32ZM309.88 380.32L306.36 383.84L302.83 380.32L305.99 377.16H306.73L309.88 380.32ZM301.7 379.18L299.7 377.18H303.7L301.7 379.18ZM300.55 380.32L297.03 383.84L293.51 380.32L296.66 377.16H297.4L300.55 380.32ZM294.38 377.16L292.38 379.16L290.38 377.16H294.38ZM288.07 377.16L291.22 380.32L287.7 383.84L284.63 380.77L284.57 379.93L287.33 377.16H288.07ZM285.07 377.16L284.42 377.82L284.36 377.16H285.07ZM284.85 383.26L286.58 384.98L285.11 386.45L284.85 383.26ZM285.85 395.07L285.72 393.4L286.62 394.31L285.85 395.07ZM286.02 397.2L287.76 395.45L291.28 398.98L287.76 402.5L286.34 401.08L286.02 397.2ZM286.55 403.71V403.56L286.63 403.64L286.56 403.71H286.55ZM287.16 411.22L286.72 405.82L287.72 404.82L291.24 408.34L287.72 411.86L287.12 411.26L287.16 411.22ZM287.48 415.22L287.42 414.41L287.76 414.07L288.9 415.22H287.48ZM288.9 412.94L292.42 409.41L295.95 412.94L293.66 415.22H291.18L288.9 412.94ZM295.95 415.22L297.09 414.07L298.24 415.22H295.95ZM300.51 415.22L298.19 413L301.72 409.47L305.23 413L303 415.26L300.51 415.22ZM305.27 415.22L306.42 414.07L307.56 415.22H305.27ZM316.02 415.22H314.6L315.74 414.07L316.08 414.41L316.02 415.22ZM316.35 411.22L315.74 411.82L312.22 408.3L315.74 404.78L316.74 405.78L316.35 411.22ZM316.97 403.55V403.71L316.9 403.64L316.99 403.55H316.97ZM317.17 401.08L315.74 402.5L312.18 399L315.7 395.47L317.45 397.22L317.17 401.08ZM317.66 395.08L316.88 394.31L317.79 393.4L317.66 395.08ZM318.66 383.25L318.4 386.46L316.84 385L318.58 383.27L318.66 383.25Z" fill="#407A45"/>
<g opacity="0.6">
<path d="M317 375.56H282.61L282.89 379.03L283.1 381.51L283.62 387.95L283.92 391.66L284.31 396.58L284.48 398.7L284.54 399.33L284.74 401.81L285.02 405.22L285.19 407.33L285.36 409.48L285.56 411.96L285.72 413.84L285.89 415.95L285.96 416.87H317.47L317.54 415.95L317.71 413.85L317.87 411.95L318.07 409.47L318.24 407.33L318.41 405.22L318.69 401.8L318.89 399.33L318.94 398.7L319.11 396.58L319.51 391.66L319.81 387.96L320.33 381.51L320.53 379.03L320.81 375.56H317ZM319.06 377.84L318.4 377.17H319.12L319.06 377.84ZM318.89 379.94L318.83 380.78L315.75 383.85L312.23 380.33L315.38 377.17H316.12L318.89 379.94ZM318 390.94L315.75 393.19L312.23 389.66L315.75 386.15L318.19 388.58L318 390.94ZM285.33 388.58L287.77 386.15L291.29 389.66L287.77 393.19L285.53 390.94L285.33 388.58ZM314.57 385L311 388.52L307.52 385L311.04 381.48L314.57 385ZM309 377.17H313L311 379.17L309 377.17ZM309.88 389.65L306.36 393.18L302.83 389.65L306.36 386.14L309.88 389.65ZM298.17 394.32L301.7 390.8L305.21 394.32L301.7 397.84L298.17 394.32ZM300.55 398.98L297 402.51L293.53 399L297.05 395.47L300.55 398.98ZM306.36 395.46L309.9 399L306.38 402.52L302.85 399L306.36 395.46ZM301.7 388.52L298.19 385L301.72 381.48L305.23 385L301.7 388.52ZM300.55 389.65L297.03 393.18L293.51 389.65L297.03 386.14L300.55 389.65ZM292.36 388.52L288.86 385L292.38 381.48L295.91 385L292.36 388.52ZM292.36 390.8L295.89 394.32L292.36 397.84L288.84 394.32L292.36 390.8ZM295.89 403.65L292.36 407.17L288.84 403.65L292.36 400.13L295.89 403.65ZM297.02 404.79L300.55 408.31L297.03 411.84L293.51 408.31L297.02 404.79ZM298.17 403.65L301.7 400.13L305.21 403.65L301.7 407.17L298.17 403.65ZM306.36 404.79L309.88 408.31L306.36 411.84L302.83 408.31L306.36 404.79ZM311.02 409.45L314.55 412.98L312.26 415.26H309.8L307.52 413L311.02 409.45ZM307.5 403.65L311.02 400.13L314.55 403.65L311 407.17L307.5 403.65ZM307.5 394.32L311 390.8L314.53 394.32L311 397.84L307.5 394.32ZM309.88 380.32L306.36 383.84L302.83 380.32L305.99 377.16H306.73L309.88 380.32ZM301.7 379.18L299.7 377.18H303.7L301.7 379.18ZM300.55 380.32L297.03 383.84L293.51 380.32L296.66 377.16H297.4L300.55 380.32ZM294.38 377.16L292.38 379.16L290.38 377.16H294.38ZM288.07 377.16L291.22 380.32L287.7 383.84L284.63 380.77L284.57 379.93L287.33 377.16H288.07ZM285.07 377.16L284.42 377.82L284.36 377.16H285.07ZM284.85 383.26L286.58 384.98L285.11 386.45L284.85 383.26ZM285.85 395.07L285.72 393.4L286.62 394.31L285.85 395.07ZM286.02 397.2L287.76 395.45L291.28 398.98L287.76 402.5L286.34 401.08L286.02 397.2ZM286.55 403.71V403.56L286.63 403.64L286.56 403.71H286.55ZM287.16 411.22L286.72 405.82L287.72 404.82L291.24 408.34L287.72 411.86L287.12 411.26L287.16 411.22ZM287.48 415.22L287.42 414.41L287.76 414.07L288.9 415.22H287.48ZM288.9 412.94L292.42 409.41L295.95 412.94L293.66 415.22H291.18L288.9 412.94ZM295.95 415.22L297.09 414.07L298.24 415.22H295.95ZM300.51 415.22L298.19 413L301.72 409.47L305.23 413L303 415.26L300.51 415.22ZM305.27 415.22L306.42 414.07L307.56 415.22H305.27ZM316.02 415.22H314.6L315.74 414.07L316.08 414.41L316.02 415.22ZM316.35 411.22L315.74 411.82L312.22 408.3L315.74 404.78L316.74 405.78L316.35 411.22ZM316.97 403.55V403.71L316.9 403.64L316.99 403.55H316.97ZM317.17 401.08L315.74 402.5L312.18 399L315.7 395.47L317.45 397.22L317.17 401.08ZM317.66 395.08L316.88 394.31L317.79 393.4L317.66 395.08ZM318.66 383.25L318.4 386.46L316.84 385L318.58 383.27L318.66 383.25Z" fill="white"/>
</g>
<path d="M282.05 378.62H321.37C322.276 378.62 323.01 377.886 323.01 376.98V375.77C323.01 374.864 322.276 374.13 321.37 374.13H282.05C281.144 374.13 280.41 374.864 280.41 375.77V376.98C280.41 377.886 281.144 378.62 282.05 378.62Z" fill="#407A45"/>
<path d="M318.3 414.46H285.13C284.224 414.46 283.49 415.194 283.49 416.1V417.31C283.49 418.216 284.224 418.95 285.13 418.95H318.3C319.206 418.95 319.94 418.216 319.94 417.31V416.1C319.94 415.194 319.206 414.46 318.3 414.46Z" fill="#407A45"/>
<path d="M433.54 148.62H233.89V284.55H433.54V148.62Z" fill="#407A45"/>
<path opacity="0.6" d="M433.54 148.62H233.89V284.55H433.54V148.62Z" fill="white"/>
<path opacity="0.1" d="M362.44 148.62C362.44 148.62 305 202.4 233.89 203.68V148.62H362.44Z" fill="white"/>
<path opacity="0.1" d="M433.53 219.58C433.53 219.58 394.08 215.47 355.05 238.14C316.02 260.81 277.05 282.14 233.89 272.14V284.54H433.53V219.58Z" fill="white"/>
<path d="M381.44 179.35H285.97V195.7H381.44V179.35Z" fill="white"/>
<path d="M381.44 202.54H285.97V218.89H381.44V202.54Z" fill="white"/>
<g opacity="0.4">
<path d="M294.52 189.12V189.55H291.2V184.86H294.42V185.29H291.7V187H294.12V187.42H291.7V189.16L294.52 189.12Z" fill="#263238"/>
<path d="M295.18 187.52H296.94V187.94H295.18V187.52Z" fill="#263238"/>
<path d="M303.81 187.5V189.55H303.34V187.55C303.34 186.81 302.96 186.43 302.34 186.43C302.174 186.42 302.009 186.446 301.855 186.508C301.701 186.569 301.562 186.664 301.449 186.785C301.336 186.907 301.252 187.052 301.202 187.21C301.152 187.368 301.137 187.536 301.16 187.7V189.55H300.68V187.55C300.68 186.81 300.31 186.43 299.68 186.43C299.516 186.423 299.352 186.452 299.2 186.514C299.048 186.577 298.911 186.672 298.8 186.793C298.689 186.914 298.605 187.058 298.555 187.215C298.505 187.371 298.489 187.537 298.51 187.7V189.55H298V186H298.46V186.65C298.594 186.432 298.785 186.254 299.012 186.136C299.239 186.018 299.494 185.964 299.75 185.98C300.009 185.961 300.268 186.021 300.491 186.154C300.715 186.286 300.892 186.484 301 186.72C301.144 186.483 301.349 186.289 301.593 186.159C301.838 186.029 302.113 185.967 302.39 185.98C302.59 185.962 302.791 185.99 302.978 186.062C303.165 186.134 303.334 186.247 303.471 186.394C303.607 186.54 303.709 186.716 303.768 186.908C303.827 187.099 303.841 187.302 303.81 187.5Z" fill="#263238"/>
<path d="M307.76 187.36V189.55H307.3V189C307.169 189.196 306.987 189.353 306.774 189.455C306.561 189.557 306.325 189.6 306.09 189.58C305.29 189.58 304.81 189.17 304.81 188.58C304.81 187.99 305.15 187.58 306.16 187.58H307.28V187.36C307.293 187.229 307.275 187.096 307.228 186.973C307.181 186.849 307.106 186.738 307.01 186.648C306.913 186.558 306.797 186.492 306.67 186.454C306.544 186.416 306.41 186.408 306.28 186.43C305.849 186.423 305.43 186.572 305.1 186.85L304.89 186.49C305.298 186.172 305.803 186.006 306.32 186.02C306.507 185.991 306.699 186.004 306.88 186.059C307.061 186.115 307.227 186.211 307.366 186.34C307.505 186.469 307.612 186.628 307.681 186.804C307.749 186.981 307.776 187.171 307.76 187.36ZM307.28 188.49V187.91H306.18C305.5 187.91 305.27 188.18 305.27 188.54C305.27 188.9 305.6 189.21 306.16 189.21C306.399 189.226 306.637 189.164 306.839 189.035C307.04 188.905 307.195 188.714 307.28 188.49Z" fill="#263238"/>
<path d="M308.94 184.91C308.938 184.84 308.957 184.772 308.994 184.713C309.031 184.654 309.085 184.608 309.149 184.58C309.213 184.552 309.283 184.543 309.352 184.556C309.42 184.568 309.484 184.6 309.534 184.649C309.584 184.697 309.618 184.76 309.632 184.828C309.647 184.896 309.64 184.967 309.614 185.032C309.588 185.096 309.543 185.151 309.485 185.19C309.428 185.229 309.359 185.25 309.29 185.25C309.244 185.251 309.199 185.244 309.157 185.227C309.114 185.211 309.076 185.186 309.043 185.154C309.01 185.122 308.984 185.084 308.967 185.042C308.949 185.001 308.94 184.956 308.94 184.91ZM309.05 186.02H309.52V189.55H309.05V186.02Z" fill="#263238"/>
<path d="M310.85 184.58H311.32V189.58H310.85V184.58Z" fill="#263238"/>
</g>
<g opacity="0.4">
<path d="M294.87 209.67C294.87 210.67 294.15 211.28 292.96 211.28H291.7V212.76H291.2V208.07H293C294.15 208.07 294.87 208.67 294.87 209.67ZM294.38 209.67C294.38 208.92 293.88 208.5 292.94 208.5H291.7V210.84H292.94C293.88 210.84 294.38 210.41 294.38 209.67Z" fill="#263238"/>
<path d="M298.46 210.57V212.76H298V212.21C297.868 212.405 297.686 212.562 297.474 212.664C297.261 212.766 297.025 212.809 296.79 212.79C295.99 212.79 295.5 212.37 295.5 211.79C295.5 211.21 295.85 210.79 296.86 210.79H298V210.57C298 209.97 297.66 209.64 297 209.64C296.572 209.633 296.156 209.782 295.83 210.06L295.61 209.7C296.022 209.382 296.53 209.216 297.05 209.23C297.235 209.204 297.424 209.219 297.602 209.276C297.781 209.333 297.944 209.43 298.079 209.559C298.215 209.688 298.32 209.846 298.386 210.021C298.452 210.196 298.477 210.384 298.46 210.57ZM298 211.7V211.12H296.89C296.21 211.12 295.99 211.39 295.99 211.75C295.99 212.11 296.32 212.41 296.88 212.41C297.118 212.425 297.354 212.364 297.555 212.237C297.756 212.109 297.912 211.921 298 211.7Z" fill="#263238"/>
<path d="M299.26 212.35L299.48 211.98C299.845 212.239 300.283 212.376 300.73 212.37C301.4 212.37 301.67 212.15 301.67 211.8C301.67 210.88 299.39 211.6 299.39 210.21C299.39 209.63 299.89 209.21 300.78 209.21C301.218 209.2 301.651 209.311 302.03 209.53L301.82 209.92C301.526 209.718 301.177 209.61 300.82 209.61C300.19 209.61 299.91 209.86 299.91 210.2C299.91 211.2 302.19 210.43 302.19 211.78C302.19 212.39 301.65 212.78 300.74 212.78C300.212 212.807 299.691 212.656 299.26 212.35Z" fill="#263238"/>
<path d="M302.54 212.35L302.75 211.98C303.116 212.237 303.553 212.374 304 212.37C304.67 212.37 304.95 212.15 304.95 211.8C304.95 210.88 302.66 211.6 302.66 210.21C302.66 209.63 303.16 209.21 304.06 209.21C304.495 209.201 304.924 209.312 305.3 209.53L305.09 209.92C304.797 209.716 304.447 209.608 304.09 209.61C303.45 209.61 303.17 209.86 303.17 210.2C303.17 211.2 305.45 210.43 305.45 211.78C305.45 212.39 304.92 212.78 304 212.78C303.479 212.805 302.965 212.653 302.54 212.35Z" fill="#263238"/>
<path d="M311.4 209.23L310.07 212.76H309.62L308.51 209.87L307.4 212.76H307L305.67 209.23H306.13L307.23 212.23L308.36 209.23H308.77L309.9 212.23L311.02 209.23H311.4Z" fill="#263238"/>
<path d="M311.66 211C311.662 210.646 311.769 210.301 311.966 210.008C312.164 209.715 312.445 209.487 312.772 209.353C313.099 209.219 313.459 209.185 313.805 209.256C314.152 209.326 314.47 209.497 314.719 209.748C314.968 209.999 315.138 210.317 315.206 210.664C315.274 211.011 315.238 211.371 315.103 211.697C314.967 212.024 314.737 212.303 314.443 212.499C314.149 212.695 313.804 212.8 313.45 212.8C313.212 212.808 312.974 212.768 312.753 212.68C312.531 212.592 312.33 212.46 312.162 212.291C311.994 212.122 311.862 211.92 311.776 211.698C311.69 211.476 311.65 211.238 311.66 211ZM314.76 211C314.746 210.744 314.658 210.498 314.506 210.292C314.354 210.086 314.145 209.929 313.905 209.841C313.664 209.752 313.403 209.736 313.154 209.794C312.905 209.852 312.678 209.982 312.502 210.168C312.325 210.354 312.207 210.587 312.162 210.839C312.117 211.091 312.147 211.351 312.248 211.586C312.349 211.821 312.516 212.022 312.73 212.163C312.944 212.304 313.194 212.38 313.45 212.38C313.629 212.383 313.806 212.349 313.972 212.28C314.137 212.211 314.285 212.108 314.409 211.978C314.532 211.849 314.627 211.695 314.687 211.526C314.748 211.358 314.772 211.179 314.76 211Z" fill="#263238"/>
<path d="M318 209.21V209.67H317.89C317.722 209.661 317.553 209.689 317.397 209.753C317.241 209.817 317.101 209.914 316.988 210.039C316.874 210.163 316.789 210.311 316.739 210.472C316.689 210.633 316.676 210.803 316.7 210.97V212.77H316.23V209.24H316.68V209.93C316.802 209.691 316.993 209.494 317.228 209.366C317.464 209.237 317.733 209.183 318 209.21Z" fill="#263238"/>
<path d="M322 207.79V212.79H321.54V212.09C321.4 212.321 321.201 212.51 320.964 212.638C320.727 212.766 320.459 212.829 320.19 212.82C319.715 212.82 319.26 212.631 318.924 212.296C318.589 211.96 318.4 211.505 318.4 211.03C318.4 210.555 318.589 210.1 318.924 209.764C319.26 209.429 319.715 209.24 320.19 209.24C320.452 209.231 320.712 209.29 320.945 209.411C321.178 209.532 321.376 209.711 321.52 209.93V207.82L322 207.79ZM321.53 210.99C321.516 210.734 321.428 210.487 321.275 210.281C321.123 210.075 320.913 209.918 320.672 209.83C320.431 209.742 320.17 209.726 319.92 209.785C319.671 209.844 319.444 209.975 319.268 210.162C319.092 210.348 318.975 210.583 318.931 210.835C318.887 211.088 318.918 211.348 319.021 211.583C319.123 211.818 319.292 212.018 319.507 212.158C319.722 212.298 319.973 212.372 320.23 212.37C320.409 212.375 320.587 212.342 320.752 212.274C320.918 212.206 321.067 212.104 321.191 211.975C321.316 211.847 321.412 211.693 321.473 211.525C321.535 211.358 321.561 211.179 321.55 211L321.53 210.99Z" fill="#263238"/>
</g>
<path opacity="0.2" d="M382.44 235.56H286.97V251.91H382.44V235.56Z" fill="black"/>
<g opacity="0.5">
<path d="M298.89 228.79L298.25 227.9H297.25V228.78H297V226H298C298.71 226 299.14 226.36 299.14 227C299.149 227.198 299.091 227.392 298.975 227.552C298.858 227.712 298.691 227.828 298.5 227.88L299.18 228.83L298.89 228.79ZM298.89 226.96C298.89 226.51 298.59 226.25 298.03 226.25H297.29V227.66H298C298.58 227.66 298.88 227.4 298.88 227L298.89 226.96Z" fill="black"/>
<path d="M301.64 227.83H299.88C299.886 227.933 299.913 228.033 299.958 228.125C300.003 228.217 300.066 228.3 300.143 228.367C300.22 228.435 300.31 228.487 300.407 228.52C300.505 228.553 300.608 228.567 300.71 228.56C300.831 228.564 300.952 228.542 301.064 228.495C301.176 228.449 301.277 228.379 301.36 228.29L301.52 228.47C301.416 228.583 301.289 228.672 301.148 228.731C301.006 228.79 300.853 228.817 300.7 228.81C300.554 228.825 300.407 228.808 300.269 228.76C300.131 228.712 300.005 228.634 299.9 228.532C299.795 228.43 299.714 228.306 299.662 228.169C299.61 228.033 299.589 227.886 299.6 227.74C299.592 227.604 299.612 227.467 299.658 227.339C299.705 227.211 299.777 227.093 299.871 226.994C299.965 226.894 300.078 226.815 300.203 226.761C300.328 226.707 300.463 226.68 300.6 226.68C300.737 226.68 300.872 226.707 300.997 226.761C301.122 226.815 301.236 226.894 301.329 226.994C301.423 227.093 301.495 227.211 301.542 227.339C301.588 227.467 301.608 227.604 301.6 227.74C301.6 227.74 301.64 227.8 301.64 227.83ZM299.88 227.62H301.38C301.38 227.421 301.301 227.23 301.16 227.09C301.02 226.949 300.829 226.87 300.63 226.87C300.431 226.87 300.24 226.949 300.1 227.09C299.959 227.23 299.88 227.421 299.88 227.62Z" fill="black"/>
<path d="M305.7 227.58V228.79H305.41V227.6C305.41 227.16 305.19 226.93 304.81 226.93C304.711 226.925 304.613 226.941 304.521 226.978C304.43 227.016 304.348 227.072 304.281 227.145C304.214 227.218 304.164 227.304 304.134 227.398C304.105 227.493 304.097 227.592 304.11 227.69V228.79H303.82V227.6C303.82 227.16 303.6 226.93 303.22 226.93C303.121 226.925 303.022 226.942 302.93 226.979C302.838 227.016 302.756 227.073 302.688 227.145C302.621 227.217 302.57 227.304 302.539 227.398C302.508 227.492 302.498 227.592 302.51 227.69V228.79H302.23V226.69H302.5V227.08C302.58 226.95 302.694 226.843 302.829 226.773C302.965 226.702 303.117 226.67 303.27 226.68C303.425 226.666 303.581 226.701 303.715 226.78C303.85 226.859 303.956 226.978 304.02 227.12C304.105 226.978 304.228 226.862 304.374 226.785C304.52 226.707 304.685 226.671 304.85 226.68C304.969 226.67 305.088 226.686 305.199 226.729C305.31 226.771 305.411 226.838 305.492 226.925C305.574 227.011 305.635 227.115 305.671 227.229C305.707 227.342 305.717 227.462 305.7 227.58Z" fill="black"/>
<path d="M308.31 227.83H306.55C306.556 227.933 306.583 228.033 306.628 228.125C306.673 228.217 306.736 228.3 306.813 228.367C306.891 228.435 306.98 228.487 307.078 228.52C307.175 228.553 307.278 228.567 307.38 228.56C307.5 228.565 307.619 228.543 307.73 228.496C307.841 228.449 307.94 228.379 308.02 228.29L308.18 228.47C308.029 228.627 307.835 228.737 307.622 228.784C307.409 228.832 307.187 228.816 306.983 228.738C306.779 228.66 306.603 228.524 306.476 228.346C306.349 228.169 306.278 227.958 306.27 227.74C306.27 227.468 306.378 227.207 306.57 227.015C306.762 226.823 307.023 226.715 307.295 226.715C307.567 226.715 307.828 226.823 308.02 227.015C308.212 227.207 308.32 227.468 308.32 227.74C308.32 227.74 308.31 227.8 308.31 227.83ZM306.55 227.62H308C307.997 227.525 307.976 227.432 307.938 227.346C307.899 227.26 307.844 227.182 307.775 227.117C307.706 227.052 307.626 227.001 307.537 226.967C307.449 226.933 307.355 226.917 307.26 226.92C307.076 226.927 306.901 227.003 306.769 227.132C306.638 227.262 306.56 227.436 306.55 227.62Z" fill="black"/>
<path d="M312.37 227.58V228.79H312.08V227.6C312.08 227.16 311.86 226.93 311.48 226.93C311.381 226.925 311.283 226.941 311.191 226.978C311.1 227.016 311.018 227.072 310.951 227.145C310.884 227.218 310.834 227.304 310.804 227.398C310.775 227.493 310.767 227.592 310.78 227.69V228.79H310.49V227.6C310.49 227.16 310.27 226.93 309.88 226.93C309.782 226.926 309.684 226.944 309.593 226.982C309.503 227.02 309.421 227.077 309.355 227.149C309.288 227.221 309.238 227.307 309.208 227.4C309.178 227.494 309.168 227.593 309.18 227.69V228.79H308.9V226.69H309.17V227.08C309.25 226.95 309.364 226.843 309.499 226.773C309.635 226.702 309.787 226.67 309.94 226.68C310.095 226.666 310.251 226.701 310.385 226.78C310.52 226.859 310.626 226.978 310.69 227.12C310.775 226.978 310.897 226.862 311.044 226.785C311.19 226.707 311.355 226.671 311.52 226.68C311.638 226.67 311.758 226.686 311.869 226.729C311.98 226.771 312.081 226.838 312.162 226.925C312.244 227.011 312.305 227.115 312.341 227.229C312.377 227.342 312.387 227.462 312.37 227.58Z" fill="black"/>
<path d="M315.27 227.74C315.28 227.877 315.261 228.015 315.215 228.144C315.169 228.274 315.097 228.392 315.003 228.493C314.909 228.593 314.796 228.673 314.67 228.728C314.543 228.782 314.407 228.81 314.27 228.81C314.109 228.815 313.95 228.779 313.808 228.703C313.665 228.628 313.546 228.516 313.46 228.38V228.79H313.19V225.79H313.47V227.05C313.558 226.92 313.677 226.814 313.817 226.742C313.957 226.67 314.113 226.635 314.27 226.64C314.41 226.639 314.549 226.668 314.677 226.724C314.806 226.781 314.921 226.864 315.015 226.967C315.109 227.071 315.181 227.193 315.225 227.327C315.268 227.46 315.284 227.601 315.27 227.74ZM314.99 227.74C314.984 227.585 314.933 227.435 314.842 227.31C314.752 227.184 314.627 227.087 314.482 227.032C314.337 226.977 314.179 226.965 314.028 226.999C313.877 227.033 313.739 227.11 313.632 227.222C313.524 227.333 313.452 227.474 313.424 227.627C313.396 227.779 313.413 227.936 313.473 228.079C313.534 228.221 313.635 228.343 313.764 228.429C313.893 228.514 314.045 228.56 314.2 228.56C314.308 228.563 314.414 228.544 314.514 228.503C314.614 228.463 314.704 228.402 314.779 228.325C314.854 228.248 314.913 228.156 314.951 228.056C314.989 227.955 315.005 227.847 315 227.74H314.99Z" fill="black"/>
<path d="M317.68 227.83H315.92C315.926 227.933 315.953 228.033 315.998 228.125C316.043 228.217 316.106 228.3 316.183 228.367C316.261 228.435 316.35 228.487 316.448 228.52C316.545 228.553 316.648 228.567 316.75 228.56C316.871 228.563 316.992 228.541 317.104 228.495C317.216 228.448 317.317 228.378 317.4 228.29L317.55 228.47C317.45 228.585 317.325 228.675 317.184 228.734C317.044 228.793 316.892 228.819 316.74 228.81C316.594 228.825 316.447 228.808 316.309 228.76C316.171 228.712 316.045 228.634 315.94 228.532C315.835 228.43 315.754 228.306 315.702 228.169C315.65 228.033 315.629 227.886 315.64 227.74C315.632 227.604 315.652 227.467 315.698 227.339C315.745 227.211 315.817 227.093 315.911 226.994C316.005 226.894 316.118 226.815 316.243 226.761C316.368 226.707 316.504 226.68 316.64 226.68C316.777 226.68 316.912 226.707 317.037 226.761C317.163 226.815 317.276 226.894 317.369 226.994C317.463 227.093 317.535 227.211 317.582 227.339C317.628 227.467 317.648 227.604 317.64 227.74C317.64 227.74 317.68 227.8 317.68 227.83ZM315.92 227.62H317.41C317.407 227.525 317.386 227.432 317.348 227.346C317.309 227.26 317.254 227.182 317.185 227.117C317.116 227.052 317.035 227.001 316.947 226.967C316.859 226.933 316.765 226.917 316.67 226.92C316.479 226.917 316.294 226.988 316.154 227.119C316.014 227.249 315.93 227.429 315.92 227.62Z" fill="black"/>
<path d="M319.33 226.68V227H319.26C319.16 226.995 319.06 227.011 318.968 227.049C318.875 227.087 318.792 227.145 318.724 227.218C318.656 227.292 318.605 227.379 318.575 227.475C318.545 227.57 318.537 227.671 318.55 227.77V228.84H318.27V226.74H318.54V227.15C318.606 226.999 318.718 226.873 318.86 226.788C319.001 226.704 319.166 226.666 319.33 226.68Z" fill="black"/>
<path d="M324.39 227.58V228.79H324.11V227.6C324.11 227.16 323.88 226.93 323.5 226.93C323.401 226.925 323.303 226.941 323.211 226.978C323.12 227.016 323.038 227.072 322.971 227.145C322.904 227.218 322.854 227.304 322.824 227.398C322.795 227.493 322.786 227.592 322.8 227.69V228.79H322.51V227.6C322.51 227.16 322.29 226.93 321.91 226.93C321.811 226.925 321.712 226.942 321.62 226.979C321.528 227.016 321.446 227.073 321.378 227.145C321.311 227.217 321.26 227.304 321.229 227.398C321.198 227.492 321.188 227.592 321.2 227.69V228.79H320.92V226.69H321.19V227.08C321.27 226.95 321.384 226.843 321.519 226.773C321.655 226.702 321.807 226.67 321.96 226.68C322.115 226.666 322.271 226.701 322.405 226.78C322.54 226.859 322.646 226.978 322.71 227.12C322.795 226.978 322.917 226.862 323.064 226.785C323.21 226.707 323.375 226.671 323.54 226.68C323.659 226.67 323.778 226.686 323.889 226.729C324 226.771 324.101 226.838 324.182 226.925C324.264 227.011 324.325 227.115 324.361 227.229C324.397 227.342 324.407 227.462 324.39 227.58Z" fill="black"/>
<path d="M327 227.83H325.24C325.246 227.933 325.273 228.033 325.318 228.125C325.363 228.217 325.426 228.3 325.503 228.367C325.58 228.435 325.67 228.487 325.767 228.52C325.865 228.553 325.967 228.567 326.07 228.56C326.19 228.565 326.309 228.543 326.42 228.496C326.53 228.449 326.629 228.379 326.71 228.29L326.87 228.47C326.77 228.585 326.645 228.675 326.504 228.734C326.364 228.793 326.212 228.819 326.06 228.81C325.914 228.825 325.767 228.808 325.629 228.76C325.491 228.712 325.365 228.634 325.26 228.532C325.155 228.43 325.074 228.306 325.022 228.169C324.97 228.033 324.949 227.886 324.96 227.74C324.952 227.604 324.971 227.467 325.018 227.339C325.065 227.211 325.137 227.093 325.231 226.994C325.324 226.894 325.437 226.815 325.563 226.761C325.688 226.707 325.823 226.68 325.96 226.68C326.096 226.68 326.232 226.707 326.357 226.761C326.482 226.815 326.595 226.894 326.689 226.994C326.783 227.093 326.855 227.211 326.902 227.339C326.948 227.467 326.968 227.604 326.96 227.74C326.96 227.74 327 227.8 327 227.83ZM325.24 227.62H326.73C326.727 227.525 326.706 227.432 326.667 227.346C326.629 227.26 326.574 227.182 326.505 227.117C326.436 227.052 326.355 227.001 326.267 226.967C326.179 226.933 326.084 226.917 325.99 226.92C325.799 226.917 325.614 226.988 325.474 227.119C325.334 227.249 325.25 227.429 325.24 227.62Z" fill="black"/>
</g>
<path d="M381.44 234.56H285.97V250.91H381.44V234.56Z" fill="#407A45"/>
<g opacity="0.5">
<path d="M316.47 261.3V262.39H317.92V262.65H316.47V263.84H316.17V261H318.09V261.26L316.47 261.3Z" fill="black"/>
<path d="M318.36 262.79C318.36 262.578 318.423 262.371 318.54 262.196C318.658 262.02 318.825 261.882 319.02 261.801C319.216 261.72 319.431 261.699 319.639 261.741C319.846 261.782 320.037 261.884 320.186 262.033C320.336 262.183 320.438 262.374 320.479 262.581C320.521 262.789 320.499 263.004 320.418 263.199C320.337 263.395 320.2 263.562 320.024 263.68C319.848 263.797 319.641 263.86 319.43 263.86C319.287 263.87 319.143 263.85 319.008 263.8C318.874 263.75 318.752 263.671 318.65 263.57C318.549 263.468 318.47 263.346 318.42 263.211C318.37 263.077 318.349 262.933 318.36 262.79ZM320.21 262.79C320.21 262.583 320.128 262.385 319.981 262.238C319.835 262.092 319.637 262.01 319.43 262.01C319.223 262.01 319.025 262.092 318.878 262.238C318.732 262.385 318.65 262.583 318.65 262.79C318.65 262.997 318.732 263.195 318.878 263.342C319.025 263.488 319.223 263.57 319.43 263.57C319.637 263.57 319.835 263.488 319.981 263.342C320.128 263.195 320.21 262.997 320.21 262.79Z" fill="black"/>
<path d="M322.14 261.72V262H322.07C321.63 262 321.37 262.28 321.37 262.78V263.85H321.08V261.75H321.35V262.16C321.422 262.016 321.536 261.896 321.677 261.818C321.818 261.739 321.979 261.705 322.14 261.72Z" fill="black"/>
<path d="M324.58 261.74V263.58C324.602 263.723 324.59 263.869 324.545 264.007C324.5 264.144 324.424 264.269 324.321 264.371C324.219 264.474 324.094 264.55 323.957 264.595C323.819 264.64 323.673 264.652 323.53 264.63C323.168 264.651 322.812 264.537 322.53 264.31L322.67 264.09C322.903 264.282 323.198 264.385 323.5 264.38C324.03 264.38 324.28 264.14 324.28 263.62V263.35C324.186 263.479 324.062 263.583 323.92 263.655C323.777 263.726 323.619 263.762 323.46 263.76C323.324 263.768 323.187 263.748 323.059 263.702C322.93 263.655 322.813 263.583 322.714 263.489C322.614 263.396 322.535 263.282 322.481 263.157C322.427 263.032 322.4 262.897 322.4 262.76C322.4 262.623 322.427 262.488 322.481 262.363C322.535 262.238 322.614 262.124 322.714 262.031C322.813 261.937 322.93 261.865 323.059 261.818C323.187 261.772 323.324 261.752 323.46 261.76C323.623 261.752 323.785 261.787 323.931 261.86C324.076 261.934 324.2 262.044 324.29 262.18V261.78L324.58 261.74ZM324.31 262.74C324.314 262.581 324.27 262.424 324.185 262.29C324.099 262.156 323.976 262.05 323.83 261.987C323.684 261.923 323.523 261.904 323.366 261.933C323.21 261.962 323.066 262.036 322.952 262.147C322.838 262.258 322.76 262.401 322.727 262.556C322.695 262.712 322.709 262.874 322.769 263.021C322.829 263.169 322.931 263.295 323.063 263.384C323.195 263.472 323.351 263.52 323.51 263.52C323.616 263.526 323.721 263.509 323.82 263.472C323.919 263.434 324.009 263.376 324.085 263.302C324.16 263.227 324.219 263.138 324.258 263.04C324.296 262.941 324.314 262.836 324.31 262.73V262.74Z" fill="black"/>
<path d="M325.17 262.79C325.17 262.506 325.283 262.234 325.483 262.033C325.684 261.833 325.956 261.72 326.24 261.72C326.524 261.72 326.796 261.833 326.997 262.033C327.197 262.234 327.31 262.506 327.31 262.79C327.31 263.074 327.197 263.346 326.997 263.547C326.796 263.747 326.524 263.86 326.24 263.86C325.956 263.86 325.684 263.747 325.483 263.547C325.283 263.346 325.17 263.074 325.17 262.79ZM327.02 262.79C327.032 262.679 327.021 262.568 326.988 262.462C326.954 262.356 326.898 262.258 326.824 262.175C326.75 262.092 326.659 262.026 326.558 261.98C326.456 261.935 326.346 261.911 326.235 261.911C326.124 261.911 326.014 261.935 325.912 261.98C325.811 262.026 325.72 262.092 325.646 262.175C325.572 262.258 325.516 262.356 325.482 262.462C325.448 262.568 325.437 262.679 325.45 262.79C325.444 262.897 325.461 263.003 325.498 263.103C325.536 263.203 325.593 263.294 325.667 263.371C325.741 263.448 325.83 263.509 325.929 263.55C326.027 263.591 326.133 263.611 326.24 263.61C326.345 263.609 326.448 263.586 326.543 263.544C326.639 263.502 326.725 263.44 326.796 263.363C326.867 263.287 326.922 263.196 326.957 263.098C326.992 262.999 327.007 262.894 327 262.79H327.02Z" fill="black"/>
<path d="M329 263.71C328.876 263.811 328.72 263.864 328.56 263.86C328.477 263.869 328.393 263.86 328.314 263.833C328.236 263.806 328.164 263.761 328.105 263.703C328.045 263.644 327.999 263.573 327.971 263.495C327.943 263.417 327.932 263.333 327.94 263.25V262H327.57V261.76H327.94V261.3H328.23V261.76H328.87V262H328.23V263.25C328.222 263.3 328.226 263.351 328.241 263.399C328.255 263.448 328.281 263.492 328.316 263.529C328.351 263.565 328.394 263.594 328.441 263.611C328.489 263.629 328.539 263.635 328.59 263.63C328.702 263.636 328.812 263.6 328.9 263.53L329 263.71Z" fill="black"/>
<path d="M332.81 262C332.81 262.59 332.38 263 331.66 263H330.91V263.88H330.62V261H331.62C332.38 261 332.81 261.4 332.81 262ZM332.51 262C332.51 261.55 332.22 261.3 331.66 261.3H330.91V262.69H331.66C332.22 262.69 332.51 262.44 332.51 262Z" fill="black"/>
<path d="M335 262.54V263.84H334.73V263.51C334.651 263.629 334.542 263.724 334.413 263.786C334.285 263.847 334.142 263.873 334 263.86C333.53 263.86 333.23 263.61 333.23 263.25C333.23 262.89 333.44 262.65 334.05 262.65H334.71V262.52C334.71 262.16 334.51 261.97 334.12 261.97C333.866 261.965 333.618 262.05 333.42 262.21L333.29 262C333.535 261.809 333.839 261.71 334.15 261.72C334.263 261.704 334.377 261.714 334.486 261.749C334.594 261.785 334.693 261.844 334.775 261.923C334.857 262.002 334.919 262.099 334.958 262.206C334.997 262.312 335.012 262.427 335 262.54ZM334.71 263.21V262.86H334C333.6 262.86 333.46 263.02 333.46 263.24C333.46 263.46 333.66 263.63 334 263.63C334.142 263.642 334.284 263.607 334.405 263.531C334.526 263.456 334.619 263.343 334.67 263.21H334.71Z" fill="black"/>
<path d="M335.44 263.6L335.57 263.37C335.783 263.531 336.043 263.615 336.31 263.61C336.71 263.61 336.88 263.47 336.88 263.27C336.88 262.72 335.51 263.15 335.51 262.32C335.51 261.98 335.81 261.72 336.35 261.72C336.611 261.713 336.868 261.783 337.09 261.92L336.96 262.14C336.782 262.015 336.567 261.952 336.35 261.96C335.97 261.96 335.8 262.11 335.8 262.31C335.8 262.88 337.16 262.45 337.16 263.26C337.16 263.62 336.84 263.86 336.29 263.86C335.986 263.869 335.687 263.777 335.44 263.6Z" fill="black"/>
<path d="M337.39 263.6L337.52 263.37C337.736 263.531 338 263.615 338.27 263.61C338.67 263.61 338.83 263.47 338.83 263.27C338.83 262.72 337.47 263.15 337.47 262.32C337.47 261.98 337.77 261.72 338.3 261.72C338.561 261.712 338.818 261.782 339.04 261.92L338.92 262.14C338.739 262.013 338.521 261.95 338.3 261.96C337.92 261.96 337.75 262.11 337.75 262.31C337.75 262.88 339.12 262.45 339.12 263.26C339.12 263.62 338.8 263.86 338.25 263.86C337.943 263.869 337.641 263.777 337.39 263.6Z" fill="black"/>
<path d="M342.69 261.74L341.89 263.84H341.62L340.96 262.12L340.3 263.84H340L339.21 261.74H339.48L340.14 263.52L340.82 261.74H341.06L341.73 263.52L342.4 261.74H342.69Z" fill="black"/>
<path d="M342.85 262.79C342.85 262.578 342.913 262.371 343.03 262.196C343.148 262.02 343.315 261.882 343.51 261.801C343.706 261.72 343.921 261.699 344.129 261.741C344.336 261.782 344.527 261.884 344.676 262.033C344.826 262.183 344.928 262.374 344.969 262.581C345.011 262.789 344.989 263.004 344.908 263.199C344.827 263.395 344.69 263.562 344.514 263.68C344.338 263.797 344.131 263.86 343.92 263.86C343.777 263.87 343.633 263.85 343.498 263.8C343.364 263.75 343.242 263.671 343.14 263.57C343.039 263.468 342.96 263.346 342.91 263.211C342.86 263.077 342.839 262.933 342.85 262.79ZM344.7 262.79C344.712 262.679 344.701 262.568 344.668 262.462C344.634 262.356 344.578 262.258 344.504 262.175C344.43 262.092 344.339 262.026 344.238 261.98C344.136 261.935 344.026 261.911 343.915 261.911C343.804 261.911 343.694 261.935 343.592 261.98C343.491 262.026 343.4 262.092 343.326 262.175C343.252 262.258 343.196 262.356 343.162 262.462C343.128 262.568 343.117 262.679 343.13 262.79C343.124 262.897 343.141 263.003 343.178 263.103C343.216 263.203 343.273 263.294 343.347 263.371C343.421 263.448 343.51 263.509 343.609 263.55C343.707 263.591 343.813 263.611 343.92 263.61C344.026 263.612 344.132 263.591 344.23 263.55C344.328 263.509 344.416 263.448 344.489 263.371C344.563 263.294 344.619 263.202 344.655 263.102C344.692 263.002 344.707 262.896 344.7 262.79Z" fill="black"/>
<path d="M346.62 261.72V262H346.56C346.459 261.994 346.358 262.011 346.265 262.05C346.171 262.088 346.087 262.147 346.019 262.221C345.951 262.296 345.901 262.385 345.872 262.481C345.842 262.578 345.835 262.68 345.85 262.78V263.85H345.57V261.75H345.84V262.16C345.91 262.016 346.022 261.897 346.161 261.819C346.301 261.74 346.461 261.706 346.62 261.72Z" fill="black"/>
<path d="M349 260.87V263.87H348.73V263.45C348.645 263.59 348.524 263.704 348.38 263.781C348.235 263.859 348.073 263.896 347.91 263.89C347.626 263.89 347.354 263.777 347.153 263.577C346.953 263.376 346.84 263.104 346.84 262.82C346.84 262.536 346.953 262.264 347.153 262.063C347.354 261.863 347.626 261.75 347.91 261.75C348.067 261.743 348.224 261.777 348.364 261.849C348.504 261.921 348.623 262.028 348.71 262.16V260.9L349 260.87ZM348.72 262.79C348.732 262.679 348.721 262.568 348.688 262.462C348.654 262.356 348.598 262.258 348.524 262.175C348.45 262.092 348.359 262.026 348.258 261.98C348.156 261.935 348.046 261.911 347.935 261.911C347.824 261.911 347.714 261.935 347.612 261.98C347.511 262.026 347.42 262.092 347.346 262.175C347.272 262.258 347.216 262.356 347.182 262.462C347.148 262.568 347.137 262.679 347.15 262.79C347.137 262.901 347.148 263.012 347.182 263.118C347.216 263.224 347.272 263.322 347.346 263.405C347.42 263.488 347.511 263.554 347.612 263.6C347.714 263.645 347.824 263.669 347.935 263.669C348.046 263.669 348.156 263.645 348.258 263.6C348.359 263.554 348.45 263.488 348.524 263.405C348.598 263.322 348.654 263.224 348.688 263.118C348.721 263.012 348.732 262.901 348.72 262.79Z" fill="black"/>
<path d="M351.1 261.75C351.1 261.47 350.87 261.27 350.46 261.27C350.317 261.261 350.174 261.285 350.042 261.34C349.91 261.396 349.793 261.481 349.7 261.59L349.49 261.43C349.613 261.289 349.768 261.178 349.942 261.107C350.115 261.036 350.303 261.006 350.49 261.02C351.05 261.02 351.41 261.28 351.41 261.71C351.41 262.39 350.68 262.43 350.68 263H350.38C350.37 262.34 351.1 262.28 351.1 261.75ZM350.31 263.65C350.31 263.623 350.315 263.596 350.326 263.571C350.337 263.546 350.352 263.524 350.372 263.505C350.392 263.486 350.415 263.472 350.44 263.462C350.466 263.453 350.493 263.449 350.52 263.45C350.547 263.449 350.574 263.453 350.6 263.462C350.625 263.472 350.648 263.486 350.668 263.505C350.688 263.524 350.703 263.546 350.714 263.571C350.725 263.596 350.73 263.623 350.73 263.65C350.73 263.706 350.708 263.759 350.668 263.798C350.629 263.838 350.576 263.86 350.52 263.86C350.465 263.858 350.413 263.835 350.374 263.796C350.335 263.757 350.312 263.705 350.31 263.65Z" fill="black"/>
</g>
<path d="M291.55 224.4H286.7V229.25H291.55V224.4Z" fill="white"/>
<path d="M323.17 239.68H323.97V244.58H326.97V245.27H323.14L323.17 239.68Z" fill="white"/>
<path d="M327.36 243.15C327.352 242.711 327.475 242.28 327.713 241.911C327.951 241.543 328.293 241.253 328.696 241.08C329.099 240.907 329.545 240.857 329.976 240.938C330.407 241.018 330.805 241.226 331.118 241.533C331.431 241.841 331.645 242.234 331.734 242.664C331.823 243.094 331.781 243.54 331.615 243.946C331.449 244.352 331.166 244.7 330.802 244.945C330.437 245.189 330.009 245.32 329.57 245.32C329.279 245.334 328.989 245.288 328.717 245.184C328.446 245.08 328.198 244.922 327.991 244.718C327.783 244.514 327.62 244.27 327.511 244C327.403 243.73 327.351 243.441 327.36 243.15ZM330.99 243.15C330.976 242.87 330.88 242.6 330.715 242.374C330.549 242.149 330.321 241.976 330.058 241.879C329.795 241.782 329.51 241.764 329.237 241.827C328.964 241.891 328.716 242.033 328.523 242.237C328.33 242.44 328.202 242.696 328.153 242.972C328.105 243.248 328.138 243.532 328.25 243.789C328.361 244.046 328.546 244.265 328.78 244.418C329.015 244.571 329.29 244.652 329.57 244.65C329.765 244.656 329.96 244.621 330.141 244.547C330.322 244.473 330.485 244.361 330.62 244.22C330.755 244.078 330.859 243.91 330.924 243.725C330.99 243.541 331.015 243.345 331 243.15H330.99Z" fill="white"/>
<path d="M336.89 241V244.67C336.933 244.968 336.905 245.271 336.809 245.556C336.713 245.841 336.552 246.099 336.338 246.31C336.124 246.522 335.863 246.679 335.577 246.771C335.291 246.863 334.987 246.887 334.69 246.84C333.971 246.865 333.265 246.643 332.69 246.21L333.06 245.62C333.526 245.982 334.1 246.175 334.69 246.17C335.69 246.17 336.15 245.71 336.15 244.75V244.41C335.957 244.624 335.721 244.793 335.457 244.907C335.193 245.021 334.907 245.076 334.62 245.07C334.338 245.09 334.055 245.051 333.789 244.957C333.522 244.862 333.278 244.714 333.072 244.521C332.865 244.329 332.7 244.096 332.587 243.836C332.475 243.577 332.417 243.298 332.417 243.015C332.417 242.732 332.475 242.453 332.587 242.194C332.7 241.934 332.865 241.701 333.072 241.508C333.278 241.316 333.522 241.168 333.789 241.073C334.055 240.979 334.338 240.94 334.62 240.96C334.917 240.953 335.212 241.012 335.484 241.133C335.756 241.254 335.997 241.434 336.19 241.66V241H336.89ZM336.14 243C336.156 242.708 336.084 242.419 335.934 242.168C335.783 241.918 335.561 241.718 335.296 241.595C335.031 241.473 334.736 241.432 334.447 241.479C334.159 241.526 333.891 241.658 333.679 241.859C333.467 242.06 333.32 242.319 333.257 242.604C333.194 242.89 333.217 243.187 333.325 243.459C333.433 243.73 333.62 243.963 333.861 244.127C334.103 244.292 334.388 244.38 334.68 244.38C334.869 244.396 335.059 244.371 335.238 244.308C335.416 244.246 335.58 244.146 335.718 244.016C335.855 243.885 335.964 243.728 336.037 243.553C336.11 243.378 336.145 243.189 336.14 243Z" fill="white"/>
<path d="M338.22 239.72C338.216 239.616 338.243 239.514 338.298 239.426C338.352 239.338 338.432 239.268 338.527 239.226C338.621 239.183 338.726 239.17 338.829 239.188C338.931 239.205 339.025 239.253 339.1 239.325C339.175 239.397 339.226 239.49 339.248 239.591C339.27 239.692 339.261 239.798 339.222 239.894C339.183 239.99 339.117 240.073 339.031 240.131C338.945 240.189 338.844 240.22 338.74 240.22C338.673 240.223 338.605 240.212 338.542 240.188C338.479 240.164 338.422 240.128 338.373 240.081C338.325 240.034 338.286 239.978 338.26 239.916C338.233 239.854 338.22 239.787 338.22 239.72ZM338.35 241.03H339.12V245.27H338.35V241.03Z" fill="white"/>
<path d="M344.61 242.83V245.27H343.84V242.92C343.84 242.09 343.42 241.68 342.7 241.68C342.514 241.665 342.326 241.692 342.152 241.759C341.977 241.825 341.82 241.93 341.69 242.065C341.561 242.2 341.463 242.362 341.405 242.539C341.346 242.716 341.327 242.905 341.35 243.09V245.27H340.59V241H341.32V241.64C341.502 241.413 341.736 241.233 342.003 241.115C342.269 240.996 342.559 240.943 342.85 240.96C343.095 240.941 343.342 240.978 343.572 241.067C343.801 241.156 344.008 241.295 344.177 241.474C344.346 241.654 344.472 241.869 344.547 242.103C344.622 242.338 344.643 242.586 344.61 242.83Z" fill="white"/>
<path d="M288.69 228.16L287.62 227L287.98 226.66L288.69 227.43L290.29 225.78L290.65 226.12L288.69 228.16Z" fill="#263238"/>
<g opacity="0.4">
<path d="M372.38 213.74C371.496 213.701 370.635 213.445 369.873 212.995C369.111 212.545 368.471 211.915 368.01 211.16L367.91 211.02L368.01 210.88C368.442 210.098 369.076 209.447 369.846 208.993C370.615 208.54 371.492 208.301 372.385 208.301C373.278 208.301 374.155 208.54 374.924 208.993C375.694 209.447 376.328 210.098 376.76 210.88L376.86 211.02L376.76 211.16C376.297 211.916 375.656 212.547 374.892 212.996C374.128 213.446 373.265 213.702 372.38 213.74ZM368.52 211C368.913 211.677 369.477 212.238 370.155 212.629C370.833 213.019 371.602 213.224 372.385 213.224C373.167 213.224 373.936 213.019 374.615 212.629C375.293 212.238 375.857 211.677 376.25 211C375.857 210.323 375.293 209.762 374.615 209.371C373.936 208.981 373.167 208.776 372.385 208.776C371.602 208.776 370.833 208.981 370.155 209.371C369.477 209.762 368.913 210.323 368.52 211Z" fill="#263238"/>
<path d="M372.38 212.87C372.012 212.87 371.652 212.761 371.346 212.556C371.04 212.351 370.801 212.06 370.661 211.719C370.52 211.379 370.484 211.005 370.557 210.643C370.629 210.282 370.807 209.951 371.068 209.691C371.329 209.432 371.662 209.255 372.023 209.185C372.385 209.114 372.759 209.152 373.099 209.294C373.438 209.437 373.728 209.677 373.931 209.984C374.135 210.291 374.242 210.652 374.24 211.02C374.24 211.264 374.192 211.505 374.098 211.73C374.005 211.955 373.867 212.16 373.695 212.332C373.522 212.504 373.317 212.64 373.091 212.732C372.865 212.824 372.624 212.871 372.38 212.87ZM372.38 209.66C372.111 209.66 371.848 209.74 371.624 209.889C371.401 210.039 371.226 210.251 371.124 210.5C371.021 210.748 370.994 211.022 371.046 211.285C371.099 211.549 371.228 211.791 371.418 211.982C371.609 212.172 371.851 212.301 372.115 212.354C372.378 212.406 372.652 212.379 372.9 212.276C373.149 212.174 373.361 211.999 373.511 211.776C373.66 211.552 373.74 211.289 373.74 211.02C373.74 210.659 373.597 210.313 373.342 210.058C373.087 209.803 372.741 209.66 372.38 209.66Z" fill="#263238"/>
<path d="M375.158 207.896L369.26 213.793L369.614 214.147L375.511 208.249L375.158 207.896Z" fill="#263238"/>
</g>
<g opacity="0.5">
<path d="M322.05 171.92L322.26 171.52C322.705 171.917 323.284 172.131 323.88 172.12C324.79 172.12 325.19 171.73 325.19 171.25C325.19 169.91 322.19 170.73 322.19 168.92C322.19 168.2 322.75 167.57 324 167.57C324.539 167.563 325.068 167.716 325.52 168.01L325.35 168.42C324.947 168.158 324.48 168.013 324 168C323.1 168 322.7 168.39 322.7 168.88C322.7 170.23 325.7 169.42 325.7 171.2C325.7 171.92 325.13 172.54 323.88 172.54C323.214 172.568 322.561 172.347 322.05 171.92Z" fill="black"/>
<path d="M326.61 167.67C326.611 167.623 326.622 167.576 326.641 167.533C326.66 167.49 326.688 167.451 326.722 167.418C326.757 167.386 326.797 167.36 326.841 167.344C326.886 167.327 326.933 167.319 326.98 167.32C327.031 167.311 327.084 167.314 327.135 167.328C327.185 167.342 327.232 167.366 327.272 167.4C327.312 167.434 327.344 167.476 327.366 167.523C327.388 167.571 327.4 167.623 327.4 167.675C327.4 167.727 327.388 167.779 327.366 167.827C327.344 167.874 327.312 167.916 327.272 167.95C327.232 167.984 327.185 168.008 327.135 168.022C327.084 168.036 327.031 168.039 326.98 168.03C326.932 168.031 326.884 168.023 326.839 168.006C326.794 167.988 326.753 167.962 326.719 167.928C326.684 167.895 326.657 167.854 326.638 167.81C326.62 167.766 326.61 167.718 326.61 167.67ZM326.72 168.83H327.22V172.52H326.72V168.83Z" fill="black"/>
<path d="M332 168.83V172.07C332.037 172.32 332.015 172.576 331.936 172.816C331.856 173.056 331.722 173.274 331.543 173.453C331.364 173.632 331.146 173.766 330.906 173.846C330.666 173.925 330.41 173.947 330.16 173.91C329.538 173.937 328.927 173.738 328.44 173.35L328.69 172.97C329.098 173.304 329.612 173.482 330.14 173.47C331.07 173.47 331.5 173.04 331.5 172.13V171.66C331.341 171.892 331.125 172.08 330.873 172.206C330.621 172.332 330.341 172.392 330.06 172.38C329.814 172.398 329.567 172.366 329.335 172.285C329.102 172.203 328.889 172.075 328.709 171.907C328.528 171.74 328.384 171.537 328.286 171.311C328.187 171.085 328.136 170.841 328.136 170.595C328.136 170.349 328.187 170.105 328.286 169.879C328.384 169.653 328.528 169.45 328.709 169.283C328.889 169.115 329.102 168.987 329.335 168.905C329.567 168.824 329.814 168.792 330.06 168.81C330.345 168.797 330.63 168.857 330.885 168.984C331.141 169.112 331.359 169.304 331.52 169.54V168.83H332ZM331.51 170.59C331.52 170.311 331.446 170.036 331.299 169.799C331.151 169.562 330.936 169.375 330.681 169.261C330.426 169.148 330.144 169.113 329.869 169.161C329.594 169.209 329.34 169.339 329.139 169.532C328.938 169.726 328.8 169.975 328.742 170.248C328.683 170.521 328.708 170.805 328.812 171.064C328.917 171.322 329.096 171.544 329.327 171.7C329.558 171.856 329.831 171.94 330.11 171.94C330.294 171.954 330.479 171.929 330.653 171.867C330.827 171.805 330.986 171.708 331.12 171.58C331.254 171.453 331.359 171.299 331.43 171.129C331.501 170.958 331.535 170.775 331.53 170.59H331.51Z" fill="black"/>
<path d="M336.8 170.38V172.52H336.3V170.43C336.33 170.275 336.322 170.115 336.278 169.963C336.234 169.811 336.154 169.672 336.046 169.557C335.938 169.441 335.804 169.354 335.655 169.3C335.506 169.247 335.347 169.23 335.19 169.25C335.014 169.239 334.837 169.266 334.673 169.33C334.508 169.395 334.36 169.494 334.238 169.622C334.116 169.749 334.023 169.902 333.967 170.07C333.91 170.237 333.891 170.414 333.91 170.59V172.52H333.41V168.83H333.88V169.51C334.033 169.28 334.244 169.095 334.492 168.972C334.739 168.849 335.014 168.793 335.29 168.81C335.498 168.794 335.706 168.824 335.901 168.898C336.096 168.972 336.271 169.088 336.416 169.238C336.56 169.388 336.669 169.569 336.736 169.766C336.802 169.963 336.824 170.173 336.8 170.38Z" fill="black"/>
<path d="M339.87 167.67C339.884 167.584 339.929 167.505 339.996 167.448C340.062 167.392 340.147 167.361 340.235 167.361C340.322 167.361 340.407 167.392 340.474 167.448C340.541 167.505 340.585 167.584 340.6 167.67C340.601 167.719 340.593 167.768 340.574 167.813C340.556 167.859 340.529 167.9 340.494 167.935C340.46 167.969 340.418 167.997 340.373 168.015C340.327 168.033 340.279 168.041 340.23 168.04C340.182 168.04 340.134 168.03 340.09 168.012C340.045 167.993 340.005 167.966 339.972 167.931C339.938 167.897 339.912 167.856 339.894 167.811C339.877 167.766 339.868 167.718 339.87 167.67ZM339.98 168.83H340.48V172.52H340L339.98 168.83Z" fill="black"/>
<path d="M345.25 170.38V172.52H344.76V170.43C344.79 170.275 344.782 170.115 344.738 169.963C344.694 169.811 344.614 169.672 344.506 169.557C344.398 169.441 344.264 169.354 344.115 169.3C343.966 169.247 343.807 169.23 343.65 169.25C343.473 169.239 343.296 169.266 343.131 169.331C342.967 169.395 342.818 169.494 342.695 169.622C342.572 169.749 342.479 169.902 342.421 170.069C342.363 170.236 342.342 170.414 342.36 170.59V172.52H341.86V168.83H342.34V169.51C342.491 169.28 342.7 169.095 342.946 168.972C343.192 168.849 343.466 168.793 343.74 168.81C343.948 168.792 344.157 168.821 344.353 168.894C344.549 168.968 344.725 169.084 344.87 169.234C345.015 169.385 345.124 169.566 345.19 169.764C345.255 169.962 345.276 170.173 345.25 170.38Z" fill="black"/>
</g>
<path d="M181.28 148.26H152.55C150.203 148.26 147.952 149.192 146.292 150.852C144.632 152.512 143.7 154.763 143.7 157.11V182.11C143.7 184.457 144.632 186.708 146.292 188.368C147.952 190.028 150.203 190.96 152.55 190.96H160.93L153.93 204.85L166.93 190.96H181.32C182.482 190.96 183.632 190.731 184.705 190.286C185.778 189.841 186.753 189.189 187.574 188.367C188.395 187.545 189.046 186.57 189.49 185.496C189.934 184.422 190.161 183.272 190.16 182.11V157.11C190.161 155.945 189.932 154.791 189.486 153.715C189.04 152.638 188.385 151.661 187.56 150.839C186.735 150.016 185.755 149.365 184.677 148.922C183.6 148.48 182.445 148.255 181.28 148.26Z" fill="#407A45"/>
<path opacity="0.7" d="M181.28 148.26H152.55C150.203 148.26 147.952 149.192 146.292 150.852C144.632 152.512 143.7 154.763 143.7 157.11V182.11C143.7 184.457 144.632 186.708 146.292 188.368C147.952 190.028 150.203 190.96 152.55 190.96H160.93L153.93 204.85L166.93 190.96H181.32C182.482 190.96 183.632 190.731 184.705 190.286C185.778 189.841 186.753 189.189 187.574 188.367C188.395 187.545 189.046 186.57 189.49 185.496C189.934 184.422 190.161 183.272 190.16 182.11V157.11C190.161 155.945 189.932 154.791 189.486 153.715C189.04 152.638 188.385 151.661 187.56 150.839C186.735 150.016 185.755 149.365 184.677 148.922C183.6 148.48 182.445 148.255 181.28 148.26Z" fill="white"/>
<path d="M165.42 175.87C165.23 175.87 165.042 175.83 164.869 175.75C164.697 175.671 164.543 175.555 164.42 175.41L158.82 168.82C158.708 168.689 158.624 168.537 158.571 168.373C158.518 168.209 158.498 168.036 158.512 167.864C158.526 167.692 158.573 167.525 158.652 167.371C158.731 167.218 158.839 167.082 158.97 166.97C159.235 166.745 159.579 166.634 159.926 166.662C160.098 166.676 160.265 166.723 160.419 166.802C160.572 166.881 160.708 166.989 160.82 167.12L165.42 172.54L173 163.59C173.112 163.459 173.248 163.351 173.401 163.272C173.555 163.193 173.722 163.146 173.894 163.132C174.066 163.118 174.239 163.138 174.403 163.191C174.567 163.244 174.719 163.328 174.85 163.44C174.981 163.552 175.089 163.688 175.168 163.841C175.247 163.995 175.294 164.162 175.308 164.334C175.322 164.506 175.302 164.679 175.249 164.843C175.196 165.007 175.112 165.159 175 165.29L166.41 175.41C166.289 175.554 166.137 175.67 165.966 175.75C165.795 175.829 165.609 175.87 165.42 175.87Z" fill="white"/>
<path d="M176.991 179.585C182.56 174.016 182.56 164.987 176.991 159.418C171.422 153.849 162.393 153.849 156.824 159.418C151.255 164.987 151.255 174.016 156.824 179.585C162.393 185.154 171.422 185.154 176.991 179.585Z" fill="#407A45"/>
<path d="M205 417.12H263.2C263.505 417.12 263.798 416.999 264.013 416.783C264.229 416.568 264.35 416.275 264.35 415.97V412.26C264.347 411.957 264.225 411.667 264.01 411.453C263.794 411.24 263.503 411.12 263.2 411.12H208V292.3H262.26C262.813 292.3 263.343 292.081 263.734 291.691C264.126 291.302 264.347 290.773 264.35 290.22V286.3H205C204.204 286.3 203.441 286.616 202.879 287.179C202.316 287.741 202 288.504 202 289.3V414.12C202 414.916 202.316 415.679 202.879 416.241C203.441 416.804 204.204 417.12 205 417.12Z" fill="#263238"/>
<g opacity="0.3">
<path d="M202 289.3V414.11C202 414.906 202.316 415.669 202.879 416.231C203.441 416.794 204.204 417.11 205 417.11H263.2C263.502 417.11 263.792 416.99 264.006 416.776C264.22 416.562 264.34 416.272 264.34 415.97V412.26C264.34 411.957 264.22 411.666 264.007 411.45C263.793 411.235 263.503 411.113 263.2 411.11H208V292.3H262.26C262.813 292.297 263.342 292.076 263.731 291.684C264.121 291.293 264.34 290.763 264.34 290.21V286.3H205C204.204 286.3 203.441 286.616 202.879 287.179C202.316 287.741 202 288.504 202 289.3Z" fill="white"/>
</g>
<path opacity="0.2" d="M202 289.3V321.13C204 321.637 206 322.127 208 322.6V292.3H262.26C262.813 292.297 263.342 292.076 263.731 291.684C264.121 291.293 264.34 290.763 264.34 290.21V286.3H205C204.204 286.3 203.441 286.616 202.879 287.179C202.316 287.741 202 288.504 202 289.3Z" fill="black"/>
<path d="M96.75 400.37L120.61 398.29V367H129V398.33L153 400.37C154.019 400.469 154.964 400.944 155.651 401.702C156.339 402.46 156.72 403.447 156.72 404.47V407.65H93V404.47C93.0008 403.442 93.386 402.451 94.0798 401.693C94.7737 400.934 95.7261 400.462 96.75 400.37Z" fill="#263238"/>
<path opacity="0.1" d="M96.75 400.37L120.61 398.29V367H129V398.33L153 400.37C154.019 400.469 154.964 400.944 155.651 401.702C156.339 402.46 156.72 403.447 156.72 404.47V407.65H93V404.47C93.0008 403.442 93.386 402.451 94.0798 401.693C94.7737 400.934 95.7261 400.462 96.75 400.37Z" fill="white"/>
<path d="M148.94 411.6C148.94 412.686 149.262 413.747 149.865 414.65C150.468 415.553 151.326 416.257 152.329 416.672C153.332 417.088 154.436 417.196 155.501 416.985C156.566 416.773 157.544 416.25 158.312 415.482C159.08 414.714 159.603 413.736 159.814 412.671C160.026 411.606 159.918 410.502 159.502 409.499C159.087 408.496 158.383 407.638 157.48 407.035C156.577 406.432 155.516 406.11 154.43 406.11C153.709 406.109 152.994 406.25 152.327 406.525C151.661 406.801 151.055 407.205 150.545 407.715C150.035 408.225 149.631 408.831 149.355 409.498C149.08 410.164 148.939 410.879 148.94 411.6Z" fill="#263238"/>
<path d="M100.75 411.6C100.75 412.686 100.428 413.748 99.8241 414.651C99.2204 415.554 98.3624 416.258 97.3586 416.673C96.3549 417.088 95.2505 417.196 94.1853 416.984C93.1201 416.771 92.1419 416.247 91.3745 415.478C90.6071 414.71 90.085 413.731 89.8743 412.665C89.6636 411.599 89.7737 410.495 90.1908 409.492C90.6079 408.489 91.3131 407.632 92.2172 407.03C93.1214 406.428 94.1838 406.108 95.27 406.11C95.9905 406.11 96.7039 406.252 97.3694 406.528C98.035 406.804 98.6395 407.209 99.1485 407.719C99.6575 408.229 100.061 408.834 100.336 409.5C100.611 410.166 100.751 410.88 100.75 411.6Z" fill="#263238"/>
<path d="M126.73 373.35H122.88C121.896 373.35 120.953 372.959 120.257 372.263C119.561 371.568 119.17 370.624 119.17 369.64V342.64H130.44V369.64C130.44 370.624 130.049 371.568 129.354 372.263C128.658 372.959 127.714 373.35 126.73 373.35Z" fill="#263238"/>
<path opacity="0.2" d="M126.73 373.35H122.88C121.896 373.35 120.953 372.959 120.257 372.263C119.561 371.568 119.17 370.624 119.17 369.64V342.64H130.44V369.64C130.44 370.624 130.049 371.568 129.354 372.263C128.658 372.959 127.714 373.35 126.73 373.35Z" fill="white"/>
<path d="M100.06 280.66C100.06 280.66 102.64 332.49 113.8 341.41H101.86C101.86 341.41 91.2202 323.75 90.4302 280.66H100.06Z" fill="#263238"/>
<path opacity="0.1" d="M100.06 280.66C100.06 280.66 102.64 332.49 113.8 341.41H101.86C101.86 341.41 91.2202 323.75 90.4302 280.66H100.06Z" fill="white"/>
<path d="M99.0901 337.11H152C153.191 337.11 154.333 337.583 155.175 338.425C156.017 339.267 156.49 340.409 156.49 341.6V345.7H94.5901V341.6C94.5901 341.01 94.7066 340.425 94.9328 339.879C95.1591 339.334 95.4907 338.839 95.9087 338.422C96.3267 338.004 96.8229 337.674 97.3688 337.449C97.9147 337.224 98.4996 337.109 99.0901 337.11Z" fill="#407A45"/>
<path d="M157.05 341.41H94.05C93.0504 341.41 92.24 342.22 92.24 343.22V343.89C92.24 344.89 93.0504 345.7 94.05 345.7H157.05C158.05 345.7 158.86 344.89 158.86 343.89V343.22C158.86 342.22 158.05 341.41 157.05 341.41Z" fill="#263238"/>
<path opacity="0.6" d="M157.05 341.41H94.05C93.0504 341.41 92.24 342.22 92.24 343.22V343.89C92.24 344.89 93.0504 345.7 94.05 345.7H157.05C158.05 345.7 158.86 344.89 158.86 343.89V343.22C158.86 342.22 158.05 341.41 157.05 341.41Z" fill="white"/>
<path d="M88.3301 292H107.46C113.06 292 117.1 287 116.46 280.75L115.65 272.47C115.03 266.26 110 261.22 104.4 261.22H85.3001C79.7001 261.22 75.6601 266.22 76.3001 272.47L77.1101 280.75C77.6901 287 82.7301 292 88.3301 292Z" fill="#407A45"/>
<path d="M151.46 247.29C152.65 251.06 154.05 254.99 155.59 258.59C156.89 261.59 158.74 265.41 160.85 267.42C162.77 269.13 167.34 269.78 170.31 270.17C174.31 270.68 178.57 270.87 182.72 271.04L183.46 276.64C179.061 277.821 174.549 278.535 170 278.77C164.92 278.95 159 278.77 154.6 275.65C148.21 270.65 145.43 263.99 142.6 256.96C141.8 254.73 141.08 252.69 140.47 250.35L151.47 247.29H151.46Z" fill="#B65B52"/>
<path d="M146.55 242C149.7 243.08 152.55 247.61 160.48 265.78C160.48 265.78 161.77 268 168.2 269.39L167.61 279.59C167.61 279.59 158.43 279.19 156.3 277.72C154.17 276.25 141.4 255.24 141.4 255.24L146.55 242Z" fill="#263238"/>
<path opacity="0.2" d="M168.2 269.41L167.61 279.61C167.61 279.61 160.25 279.29 157.18 278.16C156.871 278.056 156.575 277.915 156.3 277.74C155.07 276.88 150.3 269.49 146.45 263.41C143.66 258.99 141.45 255.26 141.45 255.26L146.55 242C149.7 243.08 152.55 247.61 160.49 265.77C160.49 265.79 161.77 268 168.2 269.41Z" fill="white"/>
<path opacity="0.2" d="M157.18 278.16C156.871 278.056 156.575 277.915 156.3 277.74C155.07 276.88 150.3 269.49 146.45 263.41C147.452 259.963 148.637 256.571 150 253.25C150 253.25 157.32 267.92 157.18 278.16Z" fill="black"/>
<path d="M180.54 271.55L187.71 268.97L186.83 278.57C186.83 278.57 180.25 279.41 179.44 275.95L180.54 271.55Z" fill="#B55B52"/>
<path d="M193.65 270.91L192.55 278.82L186.83 278.57L187.71 268.97L193.65 270.91Z" fill="#B55B52"/>
<path d="M168.25 268.97L171.91 270.07L170.57 279.99L166.91 280.62L168.25 268.97Z" fill="#263238"/>
<path d="M151.74 305.09C151.74 305.09 200.13 324.18 211.38 332.16C222.63 340.14 251 393.94 251 393.94L239.27 402.94C239.27 402.94 205.43 353.8 201.27 350.47C197.11 347.14 143.27 330.61 143.27 330.61L151.74 305.09Z" fill="#407A45"/>
<path opacity="0.4" d="M251 393.94L239.27 402.94C239.27 402.94 231.37 391.47 222.74 379.24C213.51 366.15 203.44 352.24 201.3 350.47C198.3 348.03 168.65 338.53 152.94 333.61C147.16 331.79 143.27 330.61 143.27 330.61L151.73 305.06C151.73 305.06 200.11 324.15 211.37 332.13C222.63 340.11 251 393.94 251 393.94Z" fill="white"/>
<path d="M253.15 413.19L258.8 407.51L249.56 393.22L243.92 398.9L253.15 413.19Z" fill="#B55B52"/>
<path opacity="0.2" d="M243.92 398.9L249.56 393.23L254.84 401.4L249 406.78L243.92 398.9Z" fill="black"/>
<path d="M259.78 406.89C259.78 406.89 259.78 406.89 259.85 406.89C260.515 406.646 261.152 406.331 261.75 405.95C262.216 405.701 262.572 405.287 262.75 404.79C262.787 404.603 262.77 404.41 262.701 404.233C262.632 404.056 262.513 403.902 262.36 403.79C262.278 403.704 262.175 403.641 262.061 403.606C261.947 403.571 261.827 403.565 261.71 403.59C261.16 403.72 260.62 404.5 260.21 405.25C260.297 404.55 260.134 403.842 259.75 403.25C259.638 403.137 259.491 403.065 259.333 403.047C259.175 403.029 259.015 403.065 258.88 403.15C258.755 403.209 258.645 403.297 258.56 403.406C258.474 403.516 258.416 403.644 258.39 403.78C258.16 404.86 259.61 406.6 259.68 406.7L259.78 406.6L259.69 406.71C259.69 406.71 259.62 406.82 259.62 406.83C259.635 406.858 259.66 406.879 259.689 406.89C259.718 406.901 259.751 406.901 259.78 406.89ZM259.83 406.15C259.83 406.21 259.78 406.27 259.76 406.32C259.32 405.7 258.67 404.61 258.81 403.97C258.822 403.895 258.849 403.823 258.891 403.759C258.932 403.696 258.986 403.641 259.05 403.6H259.12C259.36 403.48 259.49 403.55 259.57 403.6C259.953 404.393 260.045 405.296 259.83 406.15ZM260.17 406.39C260.61 405.39 261.34 404.09 261.89 403.97C261.948 403.955 262.008 403.957 262.064 403.975C262.121 403.992 262.171 404.025 262.21 404.07C262.304 404.142 262.377 404.237 262.422 404.346C262.468 404.454 262.484 404.573 262.47 404.69C262.36 405.21 261.51 405.83 260.17 406.39Z" fill="#407A45"/>
<path d="M258.69 406.38L251.23 411.38C251.166 411.418 251.11 411.469 251.065 411.529C251.02 411.589 250.988 411.657 250.97 411.73C250.953 411.803 250.95 411.878 250.962 411.952C250.974 412.026 251 412.097 251.04 412.16L254.64 418.31C254.846 418.621 255.167 418.838 255.533 418.913C255.898 418.988 256.278 418.915 256.59 418.71C259.16 416.92 260.3 415.94 263.59 413.71C266.586 411.868 269.449 409.82 272.16 407.58C274.62 405.29 272.29 402.92 271.05 403.67C268.05 405.44 262.97 406.2 260.11 405.99C259.606 405.951 259.104 406.088 258.69 406.38Z" fill="#263238"/>
<path d="M239.82 406.91L254.47 397.16L251.09 390.27L235.22 401.28L239.82 406.91Z" fill="#407A45"/>
<path opacity="0.2" d="M239.82 406.91L254.47 397.16L251.09 390.27L235.22 401.28L239.82 406.91Z" fill="white"/>
<path opacity="0.2" d="M222.76 379.28C213.53 366.19 203.46 352.28 201.32 350.51C198.32 348.07 168.67 338.57 152.96 333.65L151.13 314.65L156.87 313.65L157.52 315.11C157.52 315.11 193.38 323.24 203.52 328.32C210.05 331.53 218.82 363.61 222.76 379.28Z" fill="black"/>
<path d="M220.61 408.79C220.621 408.795 220.633 408.797 220.645 408.797C220.657 408.797 220.669 408.795 220.68 408.79C221.39 408.782 222.098 408.698 222.79 408.54C223.32 408.465 223.802 408.194 224.14 407.78C224.24 407.621 224.292 407.437 224.292 407.25C224.292 407.063 224.24 406.879 224.14 406.72C224.091 406.611 224.014 406.516 223.918 406.444C223.822 406.372 223.709 406.326 223.59 406.31C223.03 406.24 222.26 406.81 221.59 407.38C221.896 406.76 221.971 406.05 221.8 405.38C221.733 405.236 221.62 405.12 221.478 405.049C221.337 404.978 221.175 404.957 221.02 404.99C220.883 405.011 220.752 405.06 220.635 405.134C220.518 405.208 220.418 405.305 220.34 405.42C219.77 406.37 220.56 408.49 220.6 408.61L220.72 408.54L220.6 408.62C220.6 408.62 220.49 408.7 220.5 408.71L220.61 408.79ZM220.91 408.1L220.78 408.24C220.47 407.428 220.428 406.538 220.66 405.7C220.698 405.635 220.748 405.579 220.808 405.534C220.869 405.489 220.937 405.457 221.01 405.44H221.1C221.36 405.44 221.46 405.52 221.5 405.62C221.601 406.49 221.392 407.368 220.91 408.1ZM221.14 408.44C221.89 407.64 223.01 406.66 223.57 406.73C223.629 406.736 223.685 406.758 223.733 406.793C223.78 406.828 223.817 406.876 223.84 406.93C223.896 407.033 223.926 407.148 223.926 407.265C223.926 407.382 223.896 407.497 223.84 407.6C223.6 408.05 222.6 408.36 221.14 408.44Z" fill="#407A45"/>
<path d="M212.27 412.53L219.48 409.04L215.19 391.86L207.99 395.35L212.27 412.53Z" fill="#B55B52"/>
<path opacity="0.2" d="M207.99 395.35L215.19 391.87L217.64 401.69L210.34 404.82L207.99 395.35Z" fill="black"/>
<path d="M219.75 407.94L211.05 410.19C210.977 410.204 210.907 410.233 210.845 410.275C210.783 410.316 210.73 410.37 210.689 410.432C210.648 410.495 210.62 410.565 210.606 410.638C210.593 410.712 210.594 410.787 210.61 410.86L211.97 417.86C212.069 418.217 212.303 418.521 212.622 418.707C212.941 418.894 213.321 418.949 213.68 418.86C216.68 418.02 218.1 417.47 221.92 416.45C225.345 415.719 228.713 414.747 232 413.54C235.08 412.2 233.67 409.19 232.25 409.49C228.87 410.18 223.78 409.19 221.16 408.04C220.713 407.857 220.219 407.822 219.75 407.94Z" fill="#263238"/>
<path d="M218.7 395.12C218.7 395.12 206.5 333.91 204 330.27C199.94 324.27 151.12 314.6 151.12 314.6L156.85 313.6L150.23 296L106.76 297.71C106.76 297.71 107.67 326.43 112.09 334.13C116.51 341.83 181.9 345.37 186.15 347.13C190.4 348.89 203.37 396.9 203.37 396.9L218.7 395.12Z" fill="#407A45"/>
<path opacity="0.4" d="M218.7 395.12C218.7 395.12 206.5 333.91 204 330.27C199.94 324.27 151.12 314.6 151.12 314.6L156.85 313.6L150.23 296L106.76 297.71C106.76 297.71 107.67 326.43 112.09 334.13C116.51 341.83 181.9 345.37 186.15 347.13C190.4 348.89 203.37 396.9 203.37 396.9L218.7 395.12Z" fill="white"/>
<path d="M203.63 402.32L220.69 397.98L219.78 390.36L201.16 395.49L203.63 402.32Z" fill="#407A45"/>
<path opacity="0.2" d="M203.63 402.32L220.69 397.98L219.78 390.36L201.16 395.49L203.63 402.32Z" fill="white"/>
<path d="M120.52 298.38L107.92 298.17L107.65 301.98L121.06 302.3L120.52 298.38Z" fill="#263238"/>
<path d="M122.46 298.31L123.01 302.27L151.13 301.87L150.22 298.26L122.46 298.31Z" fill="#263238"/>
<path d="M136 299L136.36 301.61C136.413 301.929 136.578 302.218 136.826 302.425C137.073 302.633 137.387 302.744 137.71 302.74L142.21 302.6C142.359 302.603 142.507 302.572 142.642 302.51C142.778 302.449 142.898 302.358 142.994 302.243C143.09 302.129 143.159 301.995 143.196 301.851C143.234 301.707 143.239 301.556 143.21 301.41L142.84 298.79C142.787 298.472 142.622 298.184 142.374 297.978C142.126 297.773 141.812 297.663 141.49 297.67L137 297.81C136.851 297.807 136.704 297.838 136.568 297.9C136.432 297.961 136.312 298.052 136.216 298.166C136.121 298.281 136.051 298.415 136.014 298.559C135.977 298.703 135.972 298.854 136 299Z" fill="white"/>
<path d="M107.86 297.61H149.16C149.654 297.613 150.133 297.433 150.502 297.104C150.871 296.775 151.106 296.321 151.16 295.83C156.26 255.83 146.52 242.02 146.52 242.02C142.812 240.961 139.027 240.189 135.2 239.71C129.608 239.27 123.996 239.15 118.39 239.35C114.571 239.453 110.765 239.83 107 240.48C105 241.35 102.93 250.26 105 278.02C105.54 285.29 105.62 291.57 105.57 295.25C105.562 295.866 105.798 296.461 106.228 296.903C106.657 297.345 107.244 297.599 107.86 297.61Z" fill="#263238"/>
<path d="M140.76 256.17H148.72L149.32 265.67L145.05 268.44L140.76 266.32V256.17Z" fill="#263238"/>
<path opacity="0.2" d="M151.19 295.83C151.136 296.321 150.901 296.775 150.532 297.104C150.163 297.433 149.685 297.613 149.19 297.61H107.89C107.581 297.611 107.274 297.551 106.988 297.433C106.703 297.314 106.443 297.14 106.225 296.921C106.008 296.701 105.836 296.44 105.72 296.153C105.604 295.866 105.546 295.559 105.55 295.25C105.55 291.57 105.55 285.25 104.99 278.02C104.703 274.02 104.493 270.407 104.36 267.18C104.034 261.277 104.067 255.359 104.46 249.46C104.96 243.46 105.99 240.93 107.03 240.46C110.808 239.809 114.628 239.431 118.46 239.33C124.062 239.13 129.672 239.25 135.26 239.69C139.077 240.17 142.851 240.942 146.55 242C146.55 242 156.29 255.87 151.19 295.83Z" fill="white"/>
<path d="M118.8 238.94L132.14 243.49L132.68 239.67C131.38 237.39 131.05 235.95 132.15 233.3L123.25 223.07C123.48 228.31 122.53 235.47 118.8 238.94Z" fill="#B55B52"/>
<path d="M127.24 245.47L129.86 246.56L132.14 247.99C132.14 247.99 135.19 265.45 134.34 280.19L136.9 282.29L139.6 280.12C139.6 280.12 136.24 253.05 135.03 247.78L135.56 246.51L136.79 243.89L134.52 242.7L130.91 243.49H128.39L127.24 245.47Z" fill="white"/>
<path opacity="0.2" d="M126.87 227.24L132.14 233.3C131.744 234.229 131.427 235.189 131.19 236.17C128.96 235.5 126.19 232.53 126.32 230.11C126.327 229.128 126.514 228.155 126.87 227.24Z" fill="black"/>
<path d="M119.63 236.52C123.395 239.027 127.418 241.122 131.63 242.77C132.09 240.908 132.09 238.962 131.63 237.1L137.52 240.04C137.52 240.04 138.01 244.61 136.66 247.04L132.33 243.87L127.47 247.87C127.47 247.87 118.27 244.32 116.83 239.5L119.63 236.52Z" fill="#263238"/>
<path opacity="0.2" d="M149.64 272L136 283C116.42 287.36 107.81 275.15 104.35 267.15C104.024 261.247 104.057 255.329 104.45 249.43C109.15 249.21 115 249.21 116.58 250.43C119.33 252.54 128.91 267.33 130.34 268.43C131.77 269.53 149.64 272 149.64 272Z" fill="black"/>
<path d="M157.4 271.48L164.57 268.89L163.69 278.49C163.69 278.49 157.11 279.33 156.3 275.87L157.4 271.48Z" fill="#B55B52"/>
<path d="M170.5 270.83L169.41 278.74L163.69 278.49L164.57 268.89L170.5 270.83Z" fill="#B55B52"/>
<path d="M115.69 252.11C117.805 256.288 120.142 260.351 122.69 264.28C124.258 266.849 126.222 269.155 128.51 271.11C128.683 271.26 128.883 271.376 129.1 271.45C131.605 272.112 134.19 272.415 136.78 272.35C144.04 272.42 151.43 271.75 158.72 271.13L159.91 276.65C155.026 278.241 150.046 279.521 145 280.48C139.53 281.48 134.54 282.23 128.72 281.67C126.843 281.474 125.02 280.92 123.35 280.04C116.87 276.25 112.9 270.12 109.14 264.04C107.79 261.68 106.56 259.48 105.42 256.96L115.72 252.09L115.69 252.11Z" fill="#B65B52"/>
<path d="M107 240.48C94.1001 245.13 110.83 277.27 117.87 280.87C124.91 284.47 136.79 283 136.79 283L137.63 271.83C137.63 271.83 131.47 271.08 129.63 270.64C126.7 269.94 120.78 257 116.79 249.97C114.588 245.869 111.167 242.554 107 240.48Z" fill="#263238"/>
<path opacity="0.2" d="M107 240.48C94.1001 245.13 110.83 277.27 117.87 280.87C124.91 284.47 136.79 283 136.79 283L137.63 271.83C137.63 271.83 131.47 271.08 129.63 270.64C126.7 269.94 120.78 257 116.79 249.97C114.588 245.869 111.167 242.554 107 240.48Z" fill="white"/>
<path d="M135.97 270.99L134.93 283.96L138.63 283.27L139.6 271.68L135.97 270.99Z" fill="#263238"/>
<path d="M146.18 212.53C146.69 215.53 145.4 221.35 141.65 218.89C137.9 216.43 145.29 207.39 146.18 212.53Z" fill="#263238"/>
<path d="M125 213.6C123.56 220.92 122.34 225.13 125 229.75C129 236.69 138.83 235.63 142.44 228.88C145.69 222.79 147.5 211.88 141.17 207.21C139.768 206.188 138.131 205.537 136.41 205.318C134.689 205.098 132.94 205.318 131.327 205.955C129.713 206.593 128.287 207.628 127.181 208.965C126.075 210.301 125.325 211.896 125 213.6Z" fill="#B55B52"/>
<path d="M121.48 205.53L129.77 205.15L129.99 209.91L129.5 209.64C129.5 209.64 128.98 216.64 125.01 218.97C119.64 214.87 118.06 208.16 121.48 205.53Z" fill="#263238"/>
<path d="M120.62 218.88C120.672 219.804 120.906 220.708 121.31 221.54C121.713 222.373 122.277 223.117 122.97 223.73C124.84 225.36 126.86 223.95 127.25 221.63C127.6 219.54 127.05 216.17 124.74 215.43C124.23 215.28 123.691 215.259 123.171 215.368C122.65 215.476 122.165 215.712 121.757 216.053C121.35 216.394 121.033 216.831 120.834 217.324C120.636 217.817 120.562 218.352 120.62 218.88Z" fill="#B55B52"/>
<path d="M135.42 218.37C135.26 218.96 135.42 219.51 135.84 219.61C136.26 219.71 136.66 219.31 136.84 218.72C137.02 218.13 136.84 217.58 136.42 217.49C136 217.4 135.57 217.79 135.42 218.37Z" fill="#263238"/>
<path d="M142.07 220.05C141.92 220.63 142.07 221.19 142.49 221.28C142.91 221.37 143.32 220.98 143.49 220.4C143.66 219.82 143.49 219.26 143.07 219.16C142.65 219.06 142.23 219.46 142.07 220.05Z" fill="#263238"/>
<path d="M139.88 219.81C140.151 221.726 140.69 223.594 141.48 225.36C141.003 225.529 140.495 225.596 139.991 225.557C139.486 225.517 138.995 225.372 138.55 225.13L139.88 219.81Z" fill="#A02724"/>
<path d="M134.81 226.58C135.053 226.683 135.304 226.766 135.56 226.83C135.606 226.84 135.655 226.832 135.695 226.808C135.736 226.783 135.766 226.745 135.78 226.7C135.786 226.677 135.787 226.653 135.784 226.63C135.781 226.606 135.773 226.583 135.761 226.563C135.749 226.542 135.733 226.525 135.714 226.51C135.695 226.496 135.673 226.486 135.65 226.48C134.916 226.316 134.232 225.979 133.654 225.498C133.077 225.016 132.623 224.403 132.33 223.71C132.312 223.666 132.279 223.631 132.236 223.611C132.194 223.59 132.145 223.587 132.1 223.6C132.077 223.607 132.055 223.618 132.037 223.634C132.019 223.649 132.004 223.668 131.993 223.69C131.983 223.712 131.977 223.736 131.977 223.76C131.976 223.784 131.981 223.808 131.99 223.83C132.244 224.459 132.626 225.027 133.112 225.501C133.597 225.974 134.175 226.342 134.81 226.58Z" fill="#263238"/>
<path d="M133.93 215.72C133.988 215.742 134.052 215.748 134.113 215.738C134.175 215.727 134.232 215.7 134.28 215.66C134.625 215.373 135.033 215.17 135.47 215.067C135.908 214.965 136.363 214.966 136.8 215.07C136.845 215.085 136.892 215.092 136.939 215.089C136.986 215.085 137.032 215.073 137.074 215.051C137.116 215.03 137.153 215 137.184 214.963C137.214 214.927 137.236 214.885 137.25 214.84C137.266 214.797 137.272 214.751 137.269 214.705C137.267 214.659 137.255 214.614 137.234 214.573C137.214 214.532 137.185 214.495 137.15 214.466C137.115 214.436 137.074 214.414 137.03 214.4C136.48 214.253 135.903 214.241 135.348 214.365C134.793 214.488 134.276 214.744 133.84 215.11C133.803 215.138 133.771 215.174 133.748 215.215C133.724 215.256 133.71 215.301 133.704 215.347C133.698 215.394 133.702 215.441 133.715 215.486C133.728 215.532 133.75 215.574 133.78 215.61C133.821 215.657 133.872 215.695 133.93 215.72Z" fill="#263238"/>
<path d="M145.54 218.49C145.601 218.512 145.666 218.517 145.73 218.506C145.794 218.495 145.853 218.467 145.903 218.426C145.952 218.384 145.99 218.33 146.012 218.27C146.035 218.209 146.041 218.144 146.03 218.08C145.924 217.525 145.688 217.003 145.34 216.558C144.992 216.113 144.543 215.757 144.03 215.52C143.941 215.487 143.842 215.489 143.755 215.526C143.667 215.563 143.598 215.633 143.56 215.72C143.527 215.808 143.529 215.905 143.567 215.991C143.604 216.076 143.673 216.144 143.76 216.18C144.158 216.365 144.506 216.644 144.774 216.992C145.042 217.34 145.222 217.748 145.3 218.18C145.308 218.249 145.335 218.314 145.377 218.368C145.419 218.423 145.476 218.465 145.54 218.49Z" fill="#263238"/>
<path d="M126.94 211.42C127.099 211.555 127.27 211.675 127.45 211.78C127.93 212.067 128.475 212.229 129.034 212.252C129.593 212.275 130.148 212.157 130.65 211.91C132.71 210.91 133.36 205.03 139.22 208.02C139.864 207.865 140.539 207.899 141.164 208.119C141.788 208.339 142.336 208.736 142.74 209.26C144.25 211.11 143.21 217.86 146.43 216.93C149.65 216 149.09 215 149.09 215C149.09 215 148.19 215.57 147.66 215.12C148.138 214.718 148.478 214.178 148.634 213.574C148.79 212.97 148.754 212.332 148.53 211.75C148.53 211.75 147.75 212.68 147.23 212.5C147.767 209.769 147.457 206.939 146.34 204.39C144.47 199.73 133.03 200.77 133.03 200.77C133.03 200.77 131.59 198.36 126.42 200.04C121.25 201.72 118.89 207.95 119.71 210.66" fill="#263238"/>
<path d="M195.2 277.74L194.46 274.95H164.13L150.17 276.34L149.64 277.74H195.2Z" fill="#263238"/>
<path opacity="0.5" d="M195.2 277.74L194.46 274.95H164.13L150.17 276.34L149.64 277.74H195.2Z" fill="white"/>
<path opacity="0.2" d="M164.13 274.95V277.74H195.2L194.46 274.95H164.13Z" fill="black"/>
<path d="M174.39 261.59C174.35 261.928 174.383 262.271 174.486 262.596C174.59 262.92 174.761 263.219 174.989 263.472C175.218 263.724 175.497 263.926 175.809 264.062C176.122 264.198 176.459 264.265 176.8 264.26H223.26C223.986 264.243 224.681 263.962 225.216 263.471C225.751 262.98 226.09 262.312 226.17 261.59L228.93 231.85C228.956 231.562 228.936 231.272 228.87 230.99C228.743 230.466 228.44 230.001 228.013 229.672C227.586 229.343 227.059 229.169 226.52 229.18H180.06C179.334 229.197 178.639 229.478 178.104 229.969C177.569 230.46 177.23 231.128 177.15 231.85L174.39 261.59Z" fill="#263238"/>
<path opacity="0.5" d="M174.39 261.59C174.35 261.928 174.383 262.271 174.486 262.596C174.59 262.92 174.761 263.219 174.989 263.472C175.218 263.724 175.497 263.926 175.809 264.062C176.122 264.198 176.459 264.265 176.8 264.26H223.26C223.986 264.243 224.681 263.962 225.216 263.471C225.751 262.98 226.09 262.312 226.17 261.59L228.93 231.85C228.956 231.562 228.936 231.272 228.87 230.99C228.743 230.466 228.44 230.001 228.013 229.672C227.586 229.343 227.059 229.169 226.52 229.18H180.06C179.334 229.197 178.639 229.478 178.104 229.969C177.569 230.46 177.23 231.128 177.15 231.85L174.39 261.59Z" fill="white"/>
<path opacity="0.1" d="M177 264.26H223.29C224.016 264.243 224.711 263.962 225.246 263.471C225.782 262.98 226.12 262.312 226.2 261.59L228.96 231.85C228.986 231.562 228.966 231.272 228.9 230.99H182.6C181.876 231.01 181.183 231.291 180.65 231.782C180.117 232.273 179.78 232.94 179.7 233.66L176.94 263.4C176.909 263.688 176.929 263.979 177 264.26Z" fill="black"/>
<path d="M208.88 246.02H199.27L201.83 273.54L186.64 275.82V277.74H218.65V275.82L212.09 273.54L208.88 246.02Z" fill="#263238"/>
<path opacity="0.5" d="M208.88 246.02H199.27L201.83 273.54L186.64 275.82V277.74H218.65V275.82L212.09 273.54L208.88 246.02Z" fill="white"/>
<path opacity="0.2" d="M199.27 246.02L206.39 277.3L212.09 277.13L208.88 246.02H199.27Z" fill="white"/>
<path d="M119.94 417.12H178.14C178.291 417.12 178.44 417.09 178.579 417.032C178.718 416.974 178.844 416.889 178.95 416.783C179.056 416.676 179.14 416.549 179.196 416.409C179.253 416.27 179.282 416.121 179.28 415.97V412.26C179.28 411.958 179.16 411.668 178.946 411.454C178.732 411.24 178.443 411.12 178.14 411.12H122.94V292.3H177.2C177.752 292.3 178.281 292.081 178.671 291.691C179.061 291.301 179.28 290.772 179.28 290.22V286.3H119.94C119.145 286.3 118.381 286.616 117.819 287.179C117.256 287.741 116.94 288.504 116.94 289.3V414.12C116.94 414.916 117.256 415.679 117.819 416.241C118.381 416.804 119.145 417.12 119.94 417.12Z" fill="#263238"/>
<g opacity="0.4">
<path d="M119.94 417.12H178.14C178.291 417.12 178.44 417.09 178.579 417.032C178.718 416.974 178.844 416.889 178.95 416.783C179.056 416.676 179.14 416.549 179.196 416.409C179.253 416.27 179.282 416.121 179.28 415.97V412.26C179.28 411.958 179.16 411.668 178.946 411.454C178.732 411.24 178.443 411.12 178.14 411.12H122.94V292.3H177.2C177.752 292.3 178.281 292.081 178.671 291.691C179.061 291.301 179.28 290.772 179.28 290.22V286.3H119.94C119.145 286.3 118.381 286.616 117.819 287.179C117.256 287.741 116.94 288.504 116.94 289.3V414.12C116.94 414.916 117.256 415.679 117.819 416.241C118.381 416.804 119.145 417.12 119.94 417.12Z" fill="white"/>
</g>
<path d="M265.9 287.3H112.48C111.966 287.3 111.472 287.096 111.108 286.732C110.744 286.368 110.54 285.875 110.54 285.36V280.64H267.84V285.37C267.837 285.883 267.632 286.374 267.268 286.735C266.905 287.097 266.413 287.3 265.9 287.3Z" fill="#407A45"/>
<path opacity="0.2" d="M110.54 283.96H267.84V280.63H110.54V283.96Z" fill="black"/>
<path d="M107.25 281.49H271.15C271.647 281.49 272.124 281.293 272.476 280.943C272.828 280.592 273.027 280.117 273.03 279.62C273.03 279.121 272.832 278.643 272.479 278.291C272.127 277.938 271.649 277.74 271.15 277.74H107.25C106.752 277.74 106.273 277.938 105.921 278.291C105.568 278.643 105.37 279.121 105.37 279.62C105.373 280.117 105.572 280.592 105.924 280.943C106.277 281.293 106.753 281.49 107.25 281.49Z" fill="#407A45"/>
</svg>
